<?xml version="1.0" standalone="no"?>
<!DOCTYPE svg PUBLIC "-//W3C//DTD SVG 20010904//EN"
 "http://www.w3.org/TR/2001/REC-SVG-20010904/DTD/svg10.dtd">
<svg version="1.0" xmlns="http://www.w3.org/2000/svg"
 viewBox="0 0 3753.000000 3198.000000"
 preserveAspectRatio="xMidYMid meet">

<g transform="translate(0.000000,3198.000000) scale(0.100000,-0.100000)"
fill="#000000" stroke="none">
<path d="M18255 30452 c-25 -13 -76 -18 -285 -24 -599 -19 -667 -23 -683 -37
-11 -8 -59 -16 -134 -21 -65 -4 -125 -10 -133 -14 -9 -3 -60 -11 -115 -16 -55
-5 -158 -17 -230 -25 -71 -8 -166 -19 -210 -24 -44 -4 -93 -15 -110 -24 -18
-10 -53 -17 -86 -17 -38 0 -61 -5 -69 -15 -9 -11 -32 -15 -82 -15 -39 0 -81
-6 -96 -14 -15 -7 -62 -16 -104 -18 -43 -3 -83 -10 -90 -15 -7 -6 -33 -13 -58
-16 -91 -12 -176 -29 -202 -43 -14 -8 -46 -14 -70 -14 -24 0 -52 -6 -63 -14
-11 -7 -42 -16 -69 -20 -27 -3 -54 -10 -60 -15 -6 -5 -41 -12 -78 -16 -37 -4
-73 -13 -79 -21 -6 -8 -27 -14 -45 -14 -18 0 -68 -11 -110 -25 -43 -14 -96
-28 -118 -32 -23 -3 -45 -9 -51 -13 -5 -4 -28 -11 -49 -15 -22 -3 -49 -13 -60
-21 -11 -8 -39 -14 -62 -14 -25 0 -47 -6 -54 -15 -7 -8 -23 -15 -36 -15 -13 0
-41 -7 -61 -14 -21 -8 -69 -22 -108 -31 -38 -9 -83 -22 -100 -30 -49 -21 -129
-45 -151 -45 -12 0 -27 -6 -33 -14 -7 -8 -27 -17 -44 -21 -18 -3 -49 -13 -69
-21 -73 -27 -113 -41 -168 -57 -101 -30 -155 -47 -175 -57 -11 -5 -31 -14 -45
-20 -14 -5 -32 -14 -40 -19 -8 -4 -37 -16 -65 -26 -149 -52 -205 -74 -226 -89
-13 -9 -33 -16 -44 -16 -11 0 -37 -9 -58 -20 -20 -11 -46 -20 -56 -20 -11 0
-22 -4 -25 -9 -3 -5 -18 -12 -33 -16 -16 -3 -35 -12 -43 -19 -8 -8 -44 -23
-80 -35 -36 -12 -120 -49 -188 -82 -67 -32 -129 -59 -137 -59 -8 0 -36 -11
-62 -25 -27 -13 -84 -42 -128 -64 -494 -245 -816 -409 -845 -431 -19 -15 -71
-44 -114 -65 -44 -22 -91 -48 -105 -60 -14 -11 -51 -33 -81 -49 -30 -15 -73
-38 -95 -51 -22 -13 -51 -30 -65 -37 -14 -7 -31 -18 -38 -25 -7 -7 -20 -13
-27 -13 -8 0 -29 -12 -47 -28 -18 -15 -60 -45 -93 -66 -33 -22 -79 -52 -102
-68 -23 -15 -46 -28 -51 -28 -5 0 -15 -7 -22 -15 -7 -8 -23 -15 -36 -15 -12 0
-29 -8 -36 -18 -15 -20 -150 -112 -164 -112 -6 0 -23 -13 -39 -30 -16 -16 -34
-30 -41 -30 -6 0 -29 -14 -50 -30 -22 -17 -65 -50 -96 -75 -32 -25 -62 -45
-68 -45 -5 0 -27 -15 -47 -33 -21 -18 -49 -39 -63 -46 -69 -35 -98 -54 -130
-84 -19 -19 -53 -46 -75 -60 -22 -14 -55 -39 -73 -56 -18 -17 -37 -31 -43 -31
-5 0 -41 -29 -80 -65 -39 -36 -76 -65 -83 -65 -6 0 -30 -17 -52 -39 -23 -21
-50 -42 -61 -45 -11 -4 -45 -29 -74 -57 -30 -28 -66 -57 -81 -65 -15 -8 -66
-52 -115 -99 -48 -47 -93 -85 -100 -85 -6 0 -50 -36 -96 -80 -47 -44 -90 -80
-97 -80 -6 0 -96 -82 -199 -182 -103 -101 -206 -196 -228 -212 -56 -39 -506
-492 -532 -536 -11 -19 -90 -104 -175 -190 -85 -85 -158 -165 -163 -177 -4
-12 -58 -73 -119 -135 -61 -63 -119 -128 -128 -146 -9 -18 -41 -56 -70 -85
-29 -28 -56 -61 -60 -72 -3 -11 -31 -47 -61 -80 -30 -33 -55 -66 -55 -73 0 -8
-27 -42 -60 -76 -33 -35 -60 -68 -60 -74 0 -6 -26 -39 -57 -73 -32 -34 -67
-76 -78 -94 -48 -77 -95 -142 -119 -164 -14 -14 -26 -30 -26 -36 0 -7 -18 -35
-40 -63 -22 -27 -40 -54 -40 -58 0 -5 -18 -29 -40 -52 -22 -24 -40 -50 -40
-57 0 -7 -7 -18 -15 -25 -18 -15 -105 -146 -105 -158 0 -5 -13 -24 -30 -42
-16 -18 -30 -39 -30 -45 0 -6 -14 -27 -31 -46 -17 -19 -39 -50 -50 -69 -28
-50 -39 -68 -81 -123 -21 -27 -38 -55 -38 -62 0 -7 -7 -18 -16 -26 -8 -7 -26
-33 -39 -58 -25 -48 -83 -142 -110 -176 -8 -10 -15 -25 -15 -33 0 -8 -12 -28
-26 -45 -14 -16 -43 -68 -65 -114 -22 -46 -51 -95 -63 -111 -25 -29 -38 -54
-81 -144 -15 -32 -34 -63 -42 -70 -8 -6 -21 -25 -29 -42 -7 -17 -32 -65 -54
-106 -22 -41 -40 -80 -40 -86 0 -6 -8 -22 -19 -35 -10 -13 -23 -41 -30 -61 -7
-20 -19 -42 -27 -48 -7 -7 -14 -18 -14 -25 0 -8 -18 -46 -40 -87 -53 -96 -53
-94 -82 -158 -73 -154 -96 -207 -102 -232 -3 -16 -11 -28 -16 -28 -6 0 -10 -7
-10 -16 0 -9 -11 -37 -24 -63 -50 -95 -96 -200 -96 -219 0 -11 -6 -25 -14 -31
-8 -7 -17 -24 -21 -39 -4 -15 -12 -34 -20 -42 -7 -8 -15 -31 -19 -50 -3 -20
-15 -52 -26 -73 -11 -20 -20 -44 -20 -52 0 -8 -16 -48 -35 -89 -19 -41 -35
-82 -35 -91 0 -8 -13 -39 -29 -68 -16 -28 -32 -68 -36 -87 -4 -19 -15 -49 -26
-65 -10 -17 -21 -50 -25 -73 -3 -23 -13 -47 -20 -53 -8 -6 -14 -23 -14 -38 -1
-14 -7 -37 -15 -51 -8 -14 -14 -37 -15 -51 0 -15 -9 -38 -20 -52 -11 -14 -20
-33 -20 -43 0 -17 -36 -135 -66 -214 -7 -19 -23 -69 -35 -110 -12 -41 -28 -84
-35 -95 -8 -11 -14 -35 -14 -53 0 -19 -6 -48 -13 -65 -8 -18 -22 -59 -32 -92
-9 -33 -24 -77 -31 -98 -8 -20 -14 -51 -14 -67 0 -27 -14 -67 -45 -130 -7 -14
-15 -49 -18 -79 -4 -30 -13 -61 -22 -71 -10 -11 -15 -36 -15 -72 0 -31 -7 -72
-15 -91 -8 -20 -15 -50 -15 -66 0 -16 -4 -32 -9 -35 -5 -4 -12 -30 -16 -59 -4
-28 -18 -88 -30 -132 -12 -44 -25 -106 -29 -139 -4 -32 -13 -68 -21 -79 -9
-13 -15 -44 -15 -77 0 -34 -6 -64 -15 -76 -9 -12 -15 -43 -15 -84 0 -37 -6
-77 -15 -94 -9 -16 -15 -55 -15 -92 0 -36 -7 -81 -15 -101 -8 -19 -15 -55 -15
-80 0 -24 -4 -52 -10 -62 -5 -10 -12 -67 -16 -127 -4 -60 -13 -121 -20 -136
-9 -17 -14 -61 -14 -120 0 -63 -4 -100 -14 -113 -7 -11 -17 -63 -21 -119 -4
-63 -12 -105 -21 -113 -11 -11 -14 -55 -14 -196 -1 -139 -4 -188 -15 -207 -11
-19 -14 -74 -15 -245 -1 -171 -4 -226 -15 -245 -22 -38 -22 -1078 0 -1140 8
-23 15 -74 15 -113 0 -83 11 -96 82 -97 37 0 50 4 58 19 11 22 5 113 -10 141
-14 26 -13 1165 0 1190 6 12 10 109 10 240 0 193 3 225 18 248 14 22 18 57 20
214 3 145 7 190 18 199 10 8 14 37 14 109 0 75 4 100 15 110 11 10 15 36 15
112 0 79 4 107 20 138 16 31 20 59 20 139 0 56 4 103 10 106 5 3 10 34 10 68
1 39 6 69 15 81 10 14 15 45 15 97 0 56 4 80 15 89 10 9 15 31 15 73 0 41 5
66 16 78 8 9 18 43 21 75 2 33 11 73 19 91 8 17 14 53 14 80 0 26 7 61 15 77
8 15 15 45 15 65 0 21 7 46 15 57 8 11 15 42 15 74 0 30 7 66 15 80 8 14 14
39 15 56 0 18 7 45 15 60 8 16 15 47 15 69 0 22 7 49 15 59 8 11 15 39 15 62
0 26 7 51 20 67 11 14 20 35 20 47 0 12 5 31 12 43 7 12 15 45 20 72 17 108
21 125 34 136 8 7 14 31 14 58 0 25 7 55 15 65 8 11 15 34 15 51 0 19 8 39 20
50 14 12 20 31 20 58 0 21 6 51 14 65 26 51 44 97 61 157 9 33 23 73 31 88 8
16 14 38 14 50 0 12 7 31 15 41 8 11 15 34 15 52 0 17 7 37 15 44 8 7 15 24
15 39 0 14 9 40 20 56 11 17 20 41 20 53 0 13 6 36 14 50 17 34 36 93 36 114
0 9 7 21 15 28 8 7 15 22 15 33 0 26 48 127 60 127 6 0 10 13 10 30 0 16 20
71 45 121 25 50 45 101 45 113 0 11 7 30 15 40 8 11 15 27 15 37 0 9 7 19 15
23 8 3 15 17 15 32 0 14 16 58 36 98 20 39 47 96 62 126 14 30 29 62 34 70 5
8 15 29 23 47 8 17 19 34 25 38 5 3 10 21 10 39 0 19 7 39 15 46 8 7 15 20 15
30 0 9 9 29 20 43 11 14 20 29 20 33 0 8 42 102 61 134 4 8 22 42 39 75 16 33
34 67 39 75 17 29 61 125 61 134 0 5 16 26 35 47 19 22 35 43 35 49 0 5 13 31
29 58 16 27 32 60 36 73 4 13 13 31 20 39 7 8 18 31 24 50 6 20 25 50 41 68
16 18 33 44 36 57 3 13 12 29 20 36 8 6 14 17 14 24 0 8 11 26 24 42 14 16 41
65 62 109 20 43 52 96 71 117 18 20 33 43 33 50 0 7 18 39 40 72 22 33 40 64
40 69 0 5 16 26 35 47 19 22 35 44 35 49 0 5 16 30 35 56 19 25 35 51 35 58 0
6 9 19 20 29 11 9 20 23 20 30 0 7 16 30 35 51 20 22 38 50 41 63 4 14 13 27
20 30 8 3 23 25 36 49 12 24 30 52 40 61 10 9 18 22 18 30 0 8 23 38 50 67 28
29 50 60 50 68 0 8 9 23 21 34 12 10 29 35 39 54 10 19 37 53 59 75 23 21 41
47 41 56 0 9 7 22 15 29 8 6 26 32 41 58 15 25 41 57 57 71 17 14 45 48 62 76
18 28 53 71 79 97 25 26 46 52 46 59 0 6 25 38 55 71 30 33 62 72 70 88 8 16
46 61 85 100 38 39 72 81 76 93 4 12 51 66 105 119 55 54 99 105 99 113 0 8
83 99 185 202 102 103 185 194 185 202 0 21 447 468 491 491 19 10 107 90 195
178 87 87 170 162 182 167 13 4 64 47 112 96 48 49 95 89 104 89 9 0 60 43
113 95 54 52 104 95 111 95 8 0 44 29 80 64 37 35 76 66 88 70 12 4 35 22 53
41 17 19 37 35 44 35 7 0 38 23 68 51 29 28 77 65 104 84 28 18 63 47 79 64
17 17 37 31 46 31 9 0 34 18 55 40 21 22 44 40 51 40 7 0 31 16 54 35 23 19
47 35 54 35 7 0 25 14 41 30 16 17 34 30 42 30 7 0 35 20 63 45 28 25 57 45
64 45 7 0 29 16 49 35 20 19 45 35 57 35 11 0 23 7 26 15 3 8 29 27 58 43 28
17 58 37 65 46 7 9 20 16 29 16 8 0 32 15 52 33 51 43 94 71 156 100 27 13 66
38 86 56 20 17 41 31 47 31 10 0 51 28 131 88 14 11 51 31 82 46 32 15 60 31
63 37 4 5 14 9 24 9 10 0 26 9 36 20 10 11 29 20 42 20 13 0 26 7 30 15 3 9
20 22 37 30 17 8 38 18 46 23 8 5 40 21 70 37 30 15 66 38 80 50 14 12 70 43
125 69 55 26 107 51 115 57 8 5 26 14 40 19 14 6 34 15 45 22 37 21 183 95
202 101 10 4 25 10 33 15 47 27 270 138 326 163 23 9 45 22 48 28 4 6 21 11
38 11 17 0 55 15 88 35 32 19 64 35 73 35 8 0 20 7 27 15 7 8 23 15 37 15 24
0 229 95 239 111 3 5 20 9 39 9 18 0 40 7 49 15 8 8 24 15 35 15 12 0 49 13
84 29 34 15 87 36 117 46 30 10 62 24 71 31 8 8 25 14 37 14 25 0 53 12 107
45 22 13 52 24 66 25 14 0 34 7 45 15 10 8 31 15 46 15 15 0 29 4 32 9 3 4 24
11 47 15 23 4 51 13 62 21 12 8 33 15 48 15 15 0 32 7 39 15 7 8 27 15 44 15
17 0 40 7 50 15 11 8 29 15 41 15 11 0 29 6 40 14 11 7 36 17 55 21 52 10 102
26 132 41 14 8 37 14 50 14 12 0 32 7 42 15 11 8 40 15 64 15 29 0 53 7 69 20
14 11 37 20 52 20 14 0 35 7 45 15 11 8 38 15 61 15 23 0 50 7 61 15 10 8 30
15 44 15 14 0 36 7 50 15 14 8 39 14 56 15 17 0 47 6 65 14 19 8 51 14 72 14
21 0 46 7 56 16 10 9 35 16 58 16 24 0 46 6 53 15 8 10 31 15 71 15 40 0 71 6
96 20 21 11 54 20 73 20 19 1 46 7 60 15 14 8 44 14 67 15 23 0 45 5 48 10 3
6 35 10 69 10 44 0 67 5 76 15 9 10 32 15 75 15 43 0 66 5 75 15 9 11 33 15
91 15 67 0 82 3 96 20 15 17 30 20 99 20 60 0 85 4 94 15 9 11 33 15 89 15 52
0 83 5 97 15 13 10 45 14 104 15 55 0 95 5 114 15 19 10 58 15 121 15 60 0
105 5 128 15 24 10 70 15 135 15 76 0 102 4 112 15 10 12 45 15 198 15 146 0
189 3 201 14 13 11 69 15 268 18 220 3 254 6 271 21 17 16 64 17 591 17 561 0
573 0 599 -20 24 -20 38 -21 269 -19 213 2 246 0 261 -15 16 -14 46 -16 205
-16 152 0 188 -3 201 -15 11 -11 39 -15 111 -15 62 0 108 -5 132 -15 23 -10
68 -15 128 -15 63 0 102 -5 121 -15 20 -10 60 -15 124 -15 63 -1 103 -5 120
-15 14 -8 52 -14 86 -15 42 0 65 -5 74 -15 9 -11 33 -15 87 -15 60 0 80 -4
100 -20 21 -16 41 -20 103 -20 57 0 81 -4 90 -15 9 -10 32 -15 75 -15 43 0 66
-5 75 -15 9 -10 32 -15 74 -15 34 0 67 -5 72 -10 6 -6 28 -11 50 -11 21 -1 49
-8 61 -15 12 -8 48 -14 80 -14 41 0 67 -6 88 -20 19 -13 47 -20 76 -20 29 0
51 -6 59 -15 7 -9 29 -15 55 -15 26 0 48 -6 55 -15 7 -8 28 -15 47 -15 20 0
56 -6 82 -14 62 -20 129 -37 168 -43 18 -3 38 -11 44 -19 6 -8 30 -14 53 -14
22 -1 52 -7 66 -15 14 -8 37 -14 51 -15 15 0 38 -9 52 -20 15 -12 41 -20 64
-20 21 -1 49 -7 63 -15 14 -8 36 -14 48 -15 13 0 36 -6 50 -14 30 -15 80 -31
132 -41 19 -4 44 -14 55 -21 11 -8 29 -14 41 -14 12 0 27 -7 34 -15 7 -8 27
-15 44 -15 17 0 44 -9 60 -19 16 -11 35 -17 42 -14 7 2 26 -2 41 -10 35 -19
125 -47 151 -47 11 0 25 -7 32 -15 7 -8 27 -15 44 -15 17 -1 49 -12 71 -25 55
-34 82 -45 110 -45 13 0 27 -4 30 -10 9 -14 94 -50 119 -50 12 0 32 -7 44 -16
13 -9 29 -14 35 -11 7 3 21 -1 32 -9 10 -8 26 -14 35 -14 9 0 27 -9 40 -20 13
-11 34 -20 46 -20 13 0 67 -23 119 -50 53 -28 100 -48 105 -45 5 3 17 1 27 -5
10 -5 29 -14 43 -20 14 -5 63 -30 109 -55 46 -25 97 -45 112 -45 15 0 30 -4
34 -9 5 -9 147 -81 159 -81 3 0 28 -13 54 -30 27 -16 56 -30 64 -30 8 0 23 -9
33 -20 10 -11 24 -20 32 -20 8 0 31 -9 51 -20 20 -11 75 -38 122 -61 77 -37
115 -56 160 -80 8 -5 49 -25 90 -44 114 -55 153 -76 180 -100 14 -11 36 -27
50 -33 14 -7 32 -16 40 -20 8 -5 38 -20 65 -33 28 -13 56 -31 62 -40 7 -9 25
-20 40 -24 15 -3 30 -10 33 -14 3 -4 31 -20 62 -34 31 -15 60 -32 63 -37 3 -6
15 -10 26 -10 11 0 30 -11 42 -24 12 -13 32 -26 44 -30 12 -4 36 -20 54 -37
17 -16 37 -29 45 -29 7 0 29 -14 48 -30 18 -17 58 -41 87 -54 30 -13 63 -33
73 -45 11 -11 25 -21 33 -21 7 0 30 -16 52 -35 21 -19 45 -35 53 -35 9 0 27
-9 41 -20 14 -11 30 -20 36 -20 5 0 27 -18 47 -40 21 -22 45 -40 55 -40 10 0
26 -9 36 -19 23 -24 152 -111 165 -111 6 0 31 -20 56 -45 25 -25 51 -45 57
-45 7 0 25 -12 40 -26 16 -15 43 -32 59 -40 17 -7 39 -22 48 -33 10 -12 26
-21 36 -21 10 0 42 -25 72 -56 30 -30 71 -64 90 -74 19 -10 51 -34 69 -54 19
-20 41 -36 49 -36 7 0 39 -24 70 -54 31 -29 71 -60 87 -69 17 -8 55 -41 85
-71 30 -31 61 -56 68 -56 8 0 51 -36 96 -80 45 -44 89 -80 98 -80 8 0 57 -40
107 -89 50 -50 100 -93 112 -96 11 -4 98 -85 193 -180 96 -95 189 -181 207
-191 44 -22 609 -586 609 -607 0 -9 58 -75 130 -147 71 -71 137 -144 146 -162
9 -18 61 -77 115 -131 55 -54 101 -108 105 -121 3 -13 26 -43 51 -67 25 -23
57 -61 70 -83 14 -23 50 -67 79 -98 30 -31 54 -61 54 -68 0 -6 27 -40 60 -75
33 -35 60 -69 60 -75 0 -6 26 -39 58 -75 70 -78 122 -151 122 -170 0 -8 16
-29 36 -47 20 -18 47 -52 61 -76 14 -23 40 -58 59 -77 19 -20 34 -42 34 -50 0
-8 9 -23 21 -33 11 -9 29 -33 39 -52 10 -19 35 -52 54 -73 20 -21 36 -44 36
-51 0 -8 6 -19 14 -25 8 -7 17 -24 21 -38 3 -15 18 -39 32 -53 14 -14 32 -39
39 -56 7 -17 20 -36 28 -44 9 -7 16 -18 16 -26 0 -7 18 -34 40 -59 22 -25 40
-51 40 -57 0 -6 14 -26 30 -45 17 -18 30 -40 30 -47 0 -8 7 -19 15 -26 17 -14
65 -98 65 -114 0 -6 15 -27 33 -46 19 -19 46 -63 62 -98 15 -34 33 -66 40 -70
6 -4 22 -29 35 -57 13 -27 29 -57 35 -65 7 -8 16 -26 20 -40 4 -14 18 -36 31
-48 13 -13 31 -45 41 -70 9 -26 23 -53 29 -60 7 -6 16 -22 19 -35 4 -12 17
-33 29 -47 26 -29 66 -97 66 -112 0 -5 8 -22 19 -36 10 -15 24 -44 30 -64 7
-20 19 -42 27 -48 7 -7 14 -23 14 -36 0 -13 6 -27 13 -31 7 -4 30 -44 51 -88
20 -44 48 -101 62 -126 13 -26 24 -53 24 -61 0 -8 9 -23 20 -33 11 -10 20 -26
20 -36 0 -10 4 -21 10 -24 14 -9 50 -94 50 -120 0 -12 9 -34 20 -48 11 -14 20
-29 20 -33 0 -9 45 -106 61 -134 5 -8 14 -26 19 -39 6 -13 24 -44 40 -68 17
-24 30 -56 30 -71 0 -15 11 -48 25 -74 14 -26 25 -56 25 -67 0 -11 16 -50 35
-87 19 -37 35 -79 35 -95 0 -15 4 -31 10 -34 11 -7 49 -87 69 -145 36 -101 45
-128 57 -155 7 -16 16 -46 19 -66 3 -21 12 -42 20 -49 8 -7 15 -24 15 -39 0
-14 7 -35 15 -45 8 -11 15 -34 15 -52 0 -17 7 -37 15 -44 8 -7 22 -38 31 -69
9 -31 23 -68 31 -84 8 -15 11 -32 8 -37 -4 -6 3 -25 14 -44 12 -18 21 -45 21
-58 0 -14 7 -31 15 -38 8 -7 15 -24 15 -39 0 -15 7 -36 15 -49 9 -12 18 -45
22 -74 3 -29 12 -63 19 -75 8 -12 14 -33 14 -47 0 -14 5 -28 10 -31 6 -3 10
-25 10 -48 0 -23 7 -51 15 -61 8 -11 15 -34 15 -51 0 -17 7 -40 15 -51 8 -10
15 -37 15 -60 0 -26 7 -49 20 -64 13 -15 20 -38 20 -64 1 -23 7 -52 15 -66 8
-14 14 -41 15 -60 0 -19 7 -48 15 -64 8 -15 15 -45 15 -65 0 -20 7 -45 15 -55
8 -11 15 -38 15 -61 0 -23 5 -46 11 -52 6 -6 14 -42 16 -80 3 -37 12 -77 19
-88 8 -11 14 -39 14 -64 0 -26 6 -51 16 -62 10 -11 16 -40 17 -92 2 -55 7 -81
20 -94 12 -14 17 -37 17 -79 0 -37 6 -68 15 -80 10 -13 14 -44 15 -96 0 -42 5
-80 10 -83 6 -3 10 -35 10 -69 0 -44 5 -67 15 -76 12 -10 15 -36 15 -114 0
-82 4 -108 20 -139 15 -28 20 -56 20 -119 1 -57 5 -89 15 -102 11 -15 15 -48
15 -127 0 -82 3 -109 15 -119 12 -10 15 -44 15 -185 0 -141 3 -175 15 -185 12
-10 15 -48 15 -220 0 -162 3 -215 15 -243 22 -54 22 -1217 0 -1270 -12 -28
-15 -82 -15 -245 0 -161 -4 -219 -15 -252 -20 -56 -21 -268 -1 -295 11 -15 21
-17 62 -11 26 3 53 11 59 17 11 11 20 161 33 529 5 144 12 246 20 263 18 41
17 1169 -1 1200 -12 21 -18 151 -33 681 -4 150 -8 193 -21 213 -11 17 -18 56
-21 126 -2 57 -11 114 -18 129 -9 17 -14 62 -14 125 -1 70 -5 103 -15 117 -11
14 -15 47 -15 110 -1 64 -5 97 -15 110 -9 12 -15 43 -15 75 -1 31 -7 74 -15
96 -8 22 -15 58 -15 80 -1 22 -7 58 -15 80 -8 22 -15 70 -15 106 0 47 -4 70
-15 79 -10 9 -15 31 -15 74 0 39 -6 70 -15 84 -9 12 -18 45 -21 74 -3 29 -12
70 -20 91 -8 20 -14 51 -14 68 0 17 -5 40 -12 52 -11 21 -18 57 -36 187 -4 30
-13 65 -20 77 -7 12 -12 40 -12 63 0 27 -7 51 -20 67 -11 14 -20 40 -20 57 0
33 -23 113 -46 159 -8 16 -14 41 -14 57 0 26 -21 107 -41 158 -5 13 -9 35 -9
50 0 15 -8 43 -19 62 -10 19 -22 50 -26 68 -4 18 -13 45 -21 60 -8 15 -14 40
-14 55 0 16 -6 41 -13 55 -31 61 -46 100 -61 157 -8 33 -34 112 -57 175 -22
63 -43 129 -46 145 -3 17 -11 37 -18 45 -7 8 -16 31 -20 50 -10 48 -29 105
-59 173 -14 32 -26 63 -26 69 0 16 -48 116 -60 123 -6 3 -10 18 -10 33 0 15
-14 51 -30 81 -17 30 -30 63 -30 73 0 11 -11 43 -24 71 -13 29 -27 63 -31 77
-6 23 -33 83 -54 120 -5 8 -14 26 -20 40 -6 14 -15 32 -19 40 -34 61 -62 122
-62 134 0 13 -64 154 -89 196 -21 35 -121 248 -121 257 0 6 -9 20 -20 33 -11
13 -20 31 -20 41 0 10 -5 21 -11 25 -6 3 -40 68 -75 143 -36 75 -69 143 -74
151 -5 8 -23 41 -40 73 -17 32 -38 70 -48 85 -31 48 -42 66 -58 102 -9 19 -23
39 -31 43 -8 5 -23 28 -34 50 -10 23 -23 49 -27 57 -5 8 -14 25 -20 38 -22 41
-37 67 -49 82 -7 9 -26 43 -44 75 -17 33 -39 69 -49 80 -10 11 -30 45 -45 75
-15 30 -38 68 -51 83 -13 16 -24 34 -24 40 0 7 -16 29 -35 51 -19 21 -35 42
-35 46 0 4 -24 42 -52 85 -29 42 -57 85 -63 94 -5 9 -21 32 -35 51 -14 19 -36
56 -49 82 -14 25 -42 65 -63 89 -21 23 -38 47 -38 52 0 5 -18 32 -40 59 -22
28 -40 54 -40 59 0 4 -12 21 -26 36 -15 15 -38 46 -51 68 -14 22 -38 54 -53
70 -15 17 -52 68 -83 115 -30 47 -76 105 -101 130 -25 24 -46 51 -46 60 0 8
-27 43 -60 77 -33 34 -60 68 -60 76 0 8 -23 36 -51 63 -28 27 -57 63 -65 81
-8 17 -36 54 -63 81 -27 27 -60 67 -74 88 -13 22 -56 71 -93 110 -95 96 -154
163 -154 174 0 5 -52 62 -115 127 -64 65 -124 134 -135 153 -22 41 -641 660
-660 660 -7 0 -90 76 -185 170 -95 93 -182 173 -193 177 -11 5 -56 43 -101 86
-45 42 -88 77 -94 77 -7 0 -52 39 -102 86 -49 47 -102 92 -117 100 -15 8 -49
36 -76 63 -26 27 -60 53 -75 56 -15 4 -33 15 -40 25 -7 10 -39 36 -72 58 -33
22 -73 54 -90 72 -16 17 -46 41 -65 53 -19 12 -46 32 -60 45 -14 13 -43 35
-65 49 -22 14 -58 43 -79 64 -22 22 -48 39 -57 39 -9 0 -22 7 -30 16 -7 8 -26
22 -43 31 -17 9 -48 31 -68 49 -37 33 -98 76 -147 104 -15 8 -43 27 -63 43
-19 15 -38 27 -42 27 -5 0 -30 20 -57 44 -26 24 -73 56 -104 71 -31 15 -68 38
-82 51 -14 13 -32 24 -41 24 -8 0 -28 11 -44 26 -17 14 -52 36 -77 48 -52 27
-139 85 -183 121 -16 14 -35 25 -41 25 -6 0 -20 9 -31 19 -12 11 -73 46 -136
78 -64 32 -129 68 -146 80 -17 12 -64 38 -105 59 -41 20 -90 49 -109 64 -19
15 -199 109 -400 209 -201 100 -372 186 -380 191 -38 24 -253 120 -269 120
-10 0 -30 9 -44 20 -14 11 -30 20 -35 20 -5 0 -46 18 -91 40 -44 22 -109 49
-143 61 -35 12 -70 28 -79 35 -8 8 -22 14 -30 14 -9 0 -24 7 -35 15 -10 8 -28
15 -39 15 -11 0 -29 6 -40 14 -11 7 -31 17 -45 21 -14 4 -32 13 -40 20 -8 7
-46 20 -85 31 -38 10 -97 30 -130 46 -33 15 -70 28 -81 28 -12 0 -27 7 -34 15
-7 8 -19 15 -27 15 -8 0 -27 7 -41 15 -28 16 -175 63 -227 72 -16 3 -34 9 -40
13 -15 12 -127 50 -146 50 -9 0 -27 8 -40 19 -13 10 -40 21 -59 23 -35 6 -80
20 -135 43 -16 7 -52 18 -80 25 -27 6 -70 20 -94 31 -24 10 -58 19 -75 19 -18
0 -41 7 -52 15 -10 8 -37 15 -59 15 -22 0 -51 7 -65 15 -14 8 -34 14 -45 15
-11 0 -33 7 -49 15 -15 8 -39 15 -53 15 -14 0 -65 14 -115 30 -49 17 -104 30
-121 30 -18 0 -41 7 -51 15 -11 8 -39 15 -63 15 -23 0 -60 6 -80 14 -21 8 -56
17 -78 21 -21 4 -52 13 -67 21 -15 8 -43 14 -63 14 -20 0 -46 6 -58 12 -12 7
-56 18 -97 25 -133 23 -165 30 -193 42 -16 6 -52 11 -80 11 -29 0 -70 7 -92
15 -22 8 -68 14 -101 15 -42 0 -66 5 -74 15 -9 10 -31 15 -72 15 -37 0 -71 6
-91 17 -31 17 -64 22 -299 42 -65 5 -126 15 -137 20 -11 6 -60 11 -109 11 -57
0 -103 5 -125 15 -24 10 -70 15 -137 15 -73 0 -111 5 -138 17 -38 17 -104 21
-652 41 -189 7 -241 12 -267 25 -29 15 -86 17 -580 17 -493 -1 -551 -2 -578
-18z"/>
<path d="M18670 27565 c-7 -8 -15 -43 -17 -78 -6 -76 10 -137 36 -137 30 0 41
43 34 128 -7 95 -24 122 -53 87z"/>
<path d="M14221 27221 c-11 -7 -11 -13 0 -34 27 -50 84 -144 147 -242 81 -125
97 -150 163 -254 30 -47 81 -127 114 -178 33 -51 87 -136 120 -189 33 -52 85
-135 116 -182 31 -48 87 -134 124 -192 37 -58 91 -141 120 -185 28 -44 72
-111 96 -150 146 -230 209 -314 236 -314 21 -1 19 5 -28 87 -28 48 -61 103
-73 122 -13 19 -53 80 -88 135 -60 93 -90 140 -242 378 -32 50 -78 121 -101
157 -23 36 -63 97 -87 135 -113 176 -170 266 -214 335 -26 41 -77 120 -112
175 -36 55 -91 141 -123 190 -48 74 -148 215 -153 215 0 0 -7 -4 -15 -9z"/>
<path d="M18669 27213 c-11 -13 -14 -91 -12 -422 2 -517 8 -580 50 -538 17 16
18 50 18 481 0 378 -3 466 -14 479 -17 21 -25 21 -42 0z"/>
<path d="M23060 27088 c0 -6 -8 -21 -19 -32 -22 -25 -73 -119 -296 -551 -71
-137 -139 -268 -255 -490 -32 -60 -90 -173 -130 -250 -39 -77 -98 -189 -130
-250 -84 -158 -108 -206 -115 -237 -4 -16 -11 -28 -15 -28 -11 0 -24 -59 -15
-68 16 -16 71 78 274 470 41 79 82 158 93 176 10 18 51 96 92 175 168 324 211
407 264 507 30 58 90 173 133 257 43 83 82 160 88 170 41 75 64 163 41 163 -5
0 -10 -5 -10 -12z"/>
<path d="M17880 25605 c-36 -8 -90 -14 -122 -14 -31 -1 -118 -10 -195 -21
-253 -36 -282 -41 -478 -85 -33 -7 -85 -19 -115 -25 -140 -30 -184 -41 -320
-74 -80 -20 -165 -42 -190 -50 -212 -63 -308 -94 -335 -106 -11 -4 -56 -20
-100 -33 -44 -14 -121 -41 -171 -61 -50 -20 -98 -36 -105 -36 -8 0 -24 -7 -36
-15 -12 -9 -68 -34 -125 -56 -57 -23 -128 -52 -158 -66 -115 -53 -287 -136
-330 -159 -25 -13 -76 -40 -115 -60 -38 -19 -77 -39 -85 -44 -8 -5 -82 -48
-165 -95 -219 -125 -320 -189 -510 -319 -189 -130 -423 -306 -554 -415 -63
-53 -130 -109 -150 -125 -43 -36 -275 -250 -347 -321 -85 -83 -305 -316 -364
-384 -30 -35 -62 -72 -70 -81 -93 -107 -225 -271 -320 -401 -41 -55 -81 -108
-87 -118 -7 -9 -25 -34 -40 -56 -226 -337 -225 -336 -318 -495 -150 -256 -323
-591 -395 -765 -4 -11 -27 -60 -49 -108 -23 -49 -41 -93 -41 -98 0 -6 -18 -54
-39 -107 -85 -208 -186 -517 -247 -752 -9 -36 -25 -94 -35 -129 -10 -35 -19
-69 -19 -75 0 -6 -14 -44 -30 -83 -17 -39 -37 -107 -45 -150 -8 -43 -19 -100
-25 -128 -16 -76 -28 -153 -52 -345 -21 -166 -22 -221 -26 -1030 -2 -550 0
-878 7 -920 6 -36 15 -117 21 -180 13 -138 15 -147 75 -460 44 -226 71 -337
140 -580 239 -840 638 -1672 1130 -2358 33 -46 74 -103 91 -126 99 -138 158
-206 178 -206 13 0 50 14 84 30 34 17 65 30 67 30 3 0 48 20 101 46 106 50
110 59 54 119 -15 17 -66 82 -113 145 -47 63 -95 127 -106 141 -29 38 -281
416 -311 468 -14 23 -35 58 -48 77 -12 19 -38 65 -58 102 -20 37 -40 72 -44
77 -30 38 -330 646 -330 670 0 2 -11 28 -24 57 -13 29 -33 80 -46 113 -12 33
-33 85 -46 116 -62 148 -175 502 -246 769 -53 202 -62 245 -98 444 -12 66 -23
123 -25 126 -16 25 -78 540 -95 785 -26 374 -24 612 10 1085 20 277 67 606
121 840 5 25 16 72 23 105 49 220 229 803 301 970 9 22 32 82 51 134 19 52 38
99 43 105 5 6 21 40 36 76 96 237 395 796 525 985 16 22 57 85 93 140 145 221
254 366 509 676 93 112 225 256 383 417 118 121 209 205 510 471 57 50 281
227 331 261 12 8 66 47 120 86 257 185 601 397 860 530 66 34 129 66 140 72
129 71 519 240 679 294 50 16 95 33 100 38 6 4 48 20 95 35 47 16 123 41 170
57 47 16 112 36 145 44 33 8 92 23 130 35 101 29 209 57 290 74 39 8 120 26
180 39 61 13 151 29 200 35 50 7 106 16 125 21 19 5 62 12 95 15 33 4 92 13
130 20 39 8 113 16 165 20 52 3 167 13 255 21 324 31 1152 8 1440 -41 108 -18
196 -31 333 -50 57 -8 120 -19 140 -24 20 -5 93 -21 162 -36 190 -41 291 -65
335 -80 22 -7 78 -23 125 -35 47 -12 130 -37 185 -55 55 -18 138 -45 185 -60
47 -15 90 -31 95 -35 6 -4 26 -13 45 -18 151 -46 489 -191 760 -327 164 -82
325 -168 365 -194 22 -15 48 -30 59 -34 28 -11 217 -127 257 -159 20 -15 40
-28 44 -28 7 0 164 -105 225 -151 19 -14 78 -57 130 -95 52 -38 101 -75 109
-82 8 -8 39 -32 70 -55 31 -22 88 -68 126 -100 39 -33 95 -81 125 -106 191
-161 537 -506 744 -741 98 -111 352 -432 425 -535 314 -447 527 -816 748
-1300 172 -374 369 -958 443 -1310 4 -22 20 -91 34 -153 112 -482 160 -1291
115 -1967 -25 -386 -115 -927 -215 -1290 -19 -71 -42 -155 -49 -185 -7 -30
-25 -86 -38 -125 -14 -38 -39 -113 -55 -165 -57 -178 -167 -464 -237 -615 -12
-27 -49 -106 -80 -175 -54 -117 -153 -316 -175 -350 -5 -8 -42 -73 -81 -145
-93 -166 -119 -209 -261 -423 -135 -206 -183 -274 -249 -359 -29 -37 -49 -73
-49 -88 0 -29 15 -36 180 -91 58 -20 109 -40 115 -45 5 -5 24 -9 42 -9 29 0
39 8 88 75 95 127 337 502 440 679 161 277 353 670 470 961 85 210 185 491
185 517 0 7 7 26 15 41 19 37 116 380 154 547 12 52 31 131 41 175 25 107 79
413 105 600 30 210 36 353 38 815 2 625 -20 1132 -59 1345 -7 44 -31 186 -49
300 -17 108 -27 153 -43 200 -6 17 -20 73 -32 125 -22 105 -20 95 -90 335
-113 392 -246 738 -417 1095 -101 210 -138 282 -239 460 -24 41 -55 97 -69
124 -15 27 -41 69 -59 95 -17 25 -45 69 -61 96 -33 58 -192 297 -270 405 -30
41 -67 94 -84 117 -29 42 -262 333 -343 429 -224 267 -666 698 -948 921 -196
155 -472 357 -609 444 -150 95 -239 149 -381 231 -85 49 -162 93 -170 98 -28
16 -414 208 -485 240 -73 34 -305 133 -365 156 -154 59 -465 167 -545 189 -27
8 -81 24 -120 35 -101 30 -253 71 -300 80 -22 4 -71 15 -110 25 -196 48 -297
70 -485 105 -125 23 -398 60 -445 60 -27 0 -85 7 -128 15 -109 21 -1466 21
-1567 0z"/>
<path d="M25114 24983 c-61 -66 -95 -124 -83 -140 6 -7 20 -13 30 -13 25 0
131 137 127 164 -5 35 -36 31 -74 -11z"/>
<path d="M11818 24909 c-16 -9 -17 -13 -4 -37 20 -37 120 -132 139 -132 20 0
31 34 18 57 -12 23 -117 123 -128 123 -4 0 -16 -5 -25 -11z"/>
<path d="M24899 24723 c-20 -21 -63 -72 -96 -113 -34 -41 -106 -129 -160 -195
-54 -66 -135 -164 -178 -219 -44 -54 -99 -121 -122 -150 -46 -56 -56 -96 -24
-96 22 0 132 121 299 329 30 36 57 68 61 71 8 6 151 180 229 278 40 51 52 74
50 96 -4 42 -19 42 -59 -1z"/>
<path d="M12050 24645 c0 -19 78 -103 344 -371 315 -316 346 -345 365 -335 12
7 21 16 21 22 0 6 -57 70 -127 142 -219 225 -358 369 -439 455 -104 110 -164
142 -164 87z"/>
<path d="M18430 24239 c-185 -5 -334 -13 -400 -23 -58 -9 -132 -16 -165 -16
-33 0 -85 -7 -115 -15 -30 -8 -72 -15 -92 -15 -21 0 -75 -9 -120 -20 -46 -10
-148 -31 -228 -45 -80 -15 -157 -31 -171 -37 -15 -5 -53 -15 -85 -23 -132 -30
-261 -66 -329 -89 -22 -8 -80 -27 -130 -42 -49 -14 -94 -30 -100 -34 -5 -4
-46 -19 -90 -33 -44 -14 -109 -38 -145 -55 -36 -16 -83 -35 -105 -42 -22 -7
-76 -30 -120 -50 -191 -89 -223 -104 -275 -130 -79 -38 -210 -109 -320 -171
-126 -71 -116 -66 -225 -134 -53 -33 -104 -64 -113 -70 -100 -59 -450 -322
-643 -484 -217 -182 -579 -545 -722 -723 -21 -26 -45 -55 -55 -64 -9 -9 -42
-51 -75 -93 -32 -42 -69 -89 -82 -106 -97 -122 -323 -458 -414 -615 -18 -30
-36 -62 -41 -70 -127 -211 -304 -586 -405 -855 -18 -49 -43 -115 -55 -145 -12
-30 -26 -71 -32 -90 -5 -19 -26 -80 -45 -135 -19 -55 -38 -118 -43 -140 -5
-22 -18 -74 -30 -115 -12 -41 -28 -100 -35 -130 -7 -30 -16 -62 -19 -70 -3 -8
-15 -64 -27 -125 -11 -60 -27 -144 -35 -185 -52 -278 -79 -694 -70 -1105 6
-271 12 -356 42 -610 53 -449 166 -908 344 -1395 17 -47 37 -98 45 -115 7 -16
27 -64 43 -105 110 -277 338 -707 524 -988 26 -41 48 -76 48 -78 0 -3 13 -22
28 -42 16 -20 50 -66 76 -102 84 -116 160 -215 221 -289 33 -40 74 -89 90
-110 17 -20 84 -97 149 -169 98 -108 125 -132 147 -132 54 0 49 9 -76 156 -27
33 -71 82 -97 110 -26 27 -69 77 -94 110 -25 32 -49 61 -53 64 -14 11 -204
258 -261 342 -28 40 -156 233 -191 288 -124 194 -318 566 -423 815 -26 61 -51
119 -56 130 -37 79 -175 482 -211 615 -66 241 -70 259 -109 455 -43 213 -70
375 -80 470 -5 55 -15 145 -22 200 -16 131 -16 944 0 1070 7 50 17 135 22 190
12 111 32 230 60 350 10 44 28 127 40 185 12 58 30 132 40 165 10 33 25 89 35
125 22 83 84 281 110 350 7 19 25 69 40 110 67 180 234 558 280 630 12 19 25
45 29 57 28 90 344 595 500 802 23 29 50 66 61 81 35 49 118 154 146 185 28
31 142 163 194 225 109 128 405 412 640 613 146 126 404 316 600 442 66 43
136 88 155 100 127 82 637 355 664 355 3 0 43 18 90 40 47 22 90 40 96 40 7 0
24 7 38 15 41 22 120 55 132 55 6 0 32 9 58 19 46 19 134 52 202 76 146 52
433 131 615 170 33 7 105 23 160 35 91 19 135 27 330 59 33 5 118 15 189 20
70 6 133 14 138 18 12 7 225 20 497 29 206 8 631 -9 781 -31 52 -8 133 -17
180 -20 99 -7 283 -36 440 -69 41 -9 109 -23 150 -32 41 -8 131 -31 200 -49
69 -18 141 -37 160 -40 19 -4 71 -19 115 -35 44 -15 123 -41 175 -58 88 -28
159 -54 329 -119 36 -14 72 -29 80 -34 9 -5 43 -19 76 -33 172 -70 470 -221
683 -345 63 -36 132 -77 155 -90 38 -22 117 -74 262 -171 64 -43 315 -231 380
-284 95 -78 321 -274 335 -291 7 -9 31 -25 52 -36 21 -11 45 -34 54 -52 9 -17
76 -93 149 -167 73 -74 145 -151 161 -170 15 -19 49 -57 75 -85 49 -51 64 -71
249 -313 172 -226 364 -524 508 -787 38 -71 172 -343 172 -351 0 -3 15 -37 34
-77 43 -91 122 -285 146 -357 9 -30 28 -80 40 -110 12 -30 38 -109 57 -175 19
-66 46 -156 58 -200 34 -114 100 -402 120 -520 16 -91 25 -164 55 -455 29
-280 21 -927 -15 -1185 -52 -372 -64 -455 -75 -493 -5 -21 -23 -100 -40 -177
-62 -289 -175 -655 -279 -905 -17 -41 -31 -78 -31 -82 0 -4 -16 -39 -35 -79
-19 -39 -37 -80 -41 -92 -11 -37 -177 -365 -246 -487 -158 -281 -290 -481
-485 -735 -133 -173 -137 -178 -256 -314 -59 -68 -106 -128 -104 -135 2 -6 17
-12 34 -14 27 -3 39 7 114 93 46 53 98 114 114 134 17 21 64 81 105 132 115
142 168 216 285 393 100 151 137 210 217 348 82 142 283 541 323 642 15 38 31
77 36 85 19 34 104 264 160 436 62 186 132 446 168 620 12 55 28 132 37 170
21 97 30 164 74 535 32 276 37 788 10 1060 -5 52 -14 156 -20 230 -6 74 -15
160 -20 190 -6 30 -15 88 -20 128 -5 40 -12 78 -17 84 -4 7 -12 40 -19 73 -13
65 -19 93 -63 265 -43 168 -90 331 -106 365 -8 17 -30 77 -49 135 -19 58 -48
139 -66 180 -17 41 -35 84 -39 95 -4 11 -17 40 -29 65 -12 25 -22 49 -22 54 0
17 -251 513 -309 611 -33 55 -74 125 -92 155 -40 68 -188 290 -260 390 -97
134 -238 318 -250 325 -6 4 -18 19 -27 34 -52 85 -708 744 -781 785 -9 5 -36
28 -61 50 -88 81 -420 325 -543 400 -18 11 -63 40 -102 66 -70 45 -131 82
-299 179 -76 44 -373 194 -516 259 -142 66 -536 216 -663 253 -40 12 -94 28
-122 36 -184 56 -317 90 -490 124 -82 16 -191 38 -242 49 -50 11 -105 20 -122
20 -16 0 -42 5 -57 10 -14 6 -76 15 -138 20 -61 5 -156 15 -211 21 -158 17
-515 25 -835 18z"/>
<path d="M16885 23180 c-144 -19 -298 -105 -396 -222 -131 -157 -199 -270
-309 -513 -38 -83 -109 -297 -144 -430 -73 -281 -89 -430 -90 -840 0 -381 10
-471 75 -675 50 -154 102 -267 176 -379 59 -90 74 -108 208 -256 167 -184 219
-253 272 -357 89 -175 112 -353 113 -858 0 -348 -14 -882 -26 -957 -4 -28 -9
-33 -32 -33 -15 0 -66 16 -112 35 -46 19 -88 35 -92 35 -5 0 -47 15 -96 34
-48 18 -127 46 -177 61 -49 15 -108 33 -130 40 -22 8 -65 21 -95 29 -30 8
-104 30 -165 47 -60 17 -148 39 -195 49 -47 10 -125 27 -175 38 -49 11 -117
25 -150 32 -33 6 -80 16 -105 21 -25 6 -88 17 -140 25 -52 8 -124 19 -160 25
-231 37 -350 49 -804 80 -196 13 -988 7 -1131 -9 -49 -6 -160 -16 -245 -22
-85 -7 -172 -16 -194 -22 -64 -16 -123 -96 -93 -126 12 -12 35 -12 148 -2 74
6 150 16 169 21 19 5 116 14 215 19 99 5 240 15 313 21 213 19 968 -6 1197
-40 39 -6 117 -15 175 -21 213 -22 460 -61 600 -95 30 -7 75 -16 100 -19 62
-9 497 -114 540 -131 19 -8 69 -23 110 -35 138 -38 365 -114 510 -170 30 -12
78 -30 105 -40 76 -28 244 -98 300 -125 28 -13 109 -51 180 -85 72 -33 150
-72 175 -85 25 -13 70 -36 100 -51 66 -34 375 -210 410 -234 14 -10 93 -62
175 -116 444 -292 852 -643 1195 -1029 177 -199 350 -423 464 -600 32 -49 66
-101 76 -115 74 -110 241 -427 324 -615 54 -122 85 -159 141 -169 44 -9 59 5
48 44 -18 61 -9 93 51 180 418 604 930 1091 1586 1509 30 19 71 45 90 57 128
83 593 328 660 349 14 4 57 23 95 41 204 97 682 263 915 319 41 9 104 25 140
35 36 10 90 25 120 33 54 15 474 88 705 124 l119 18 13 45 c12 40 11 46 -5 63
-17 16 -26 17 -108 7 -49 -6 -129 -17 -179 -25 -49 -7 -126 -19 -170 -25 -103
-14 -171 -27 -270 -50 -44 -11 -123 -29 -175 -40 -249 -54 -791 -222 -965
-299 -11 -5 -40 -18 -65 -29 -25 -11 -72 -31 -105 -45 -181 -72 -487 -227
-722 -366 -200 -118 -532 -343 -649 -440 -17 -15 -50 -42 -74 -61 -225 -182
-544 -489 -722 -696 -91 -105 -238 -295 -306 -395 -37 -55 -67 -67 -86 -36 -8
12 -45 83 -83 157 -68 132 -140 258 -222 391 -23 37 -41 75 -41 86 0 24 137
207 246 331 315 355 581 595 975 882 30 22 323 215 374 247 365 226 1005 515
1405 635 36 10 88 26 115 34 219 69 579 152 809 189 44 7 106 17 136 23 132
25 525 64 780 77 147 8 156 10 169 46 13 38 0 75 -30 84 -25 8 -272 -1 -439
-15 -90 -8 -236 -27 -552 -70 -137 -19 -561 -110 -723 -155 -163 -46 -461
-139 -540 -170 -33 -13 -80 -30 -105 -38 -151 -52 -403 -163 -651 -287 -731
-364 -1395 -886 -1906 -1498 -80 -95 -150 -171 -156 -169 -12 3 -62 64 -214
258 -45 57 -95 119 -111 136 -16 18 -44 50 -62 70 -19 21 -80 88 -136 148
-154 167 -164 179 -164 190 0 22 44 74 167 198 281 284 505 472 845 712 81 57
333 215 393 246 33 17 67 37 75 44 8 7 107 59 221 116 373 189 622 292 1014
419 99 32 128 40 300 85 203 53 242 63 280 69 22 4 67 13 100 20 191 44 209
48 465 81 63 9 167 22 230 31 368 50 1136 55 1512 8 193 -23 208 -20 208 55 0
52 -23 59 -276 82 -324 29 -803 36 -1079 15 -340 -26 -461 -36 -532 -46 -38
-5 -106 -14 -153 -20 -47 -6 -99 -16 -116 -21 -17 -5 -71 -16 -120 -24 -170
-28 -485 -98 -584 -130 -25 -8 -51 -15 -58 -15 -8 0 -28 -6 -45 -14 -18 -8
-50 -19 -72 -24 -84 -22 -151 -42 -170 -51 -11 -5 -75 -28 -142 -50 -109 -36
-296 -108 -378 -146 -16 -7 -59 -25 -95 -40 -70 -29 -177 -78 -224 -101 -24
-12 -32 -13 -42 -2 -24 24 -34 240 -35 746 -1 903 27 1014 361 1392 89 101
137 171 176 256 68 147 77 239 64 699 -5 204 -14 579 -20 835 -13 602 -36
1093 -63 1367 -12 119 -15 134 -38 152 -56 47 -155 12 -142 -50 4 -19 -2 -39
-17 -64 -21 -33 -22 -52 -30 -313 -5 -152 -14 -425 -20 -607 -6 -181 -14 -534
-18 -782 -7 -446 -7 -453 -29 -474 -15 -16 -28 -20 -47 -15 -56 14 -55 6 -66
753 -5 378 -14 783 -21 898 -6 116 -14 306 -18 422 -8 233 -12 245 -72 257
-35 7 -79 -8 -79 -28 0 -8 -5 -16 -10 -18 -15 -5 -29 -113 -40 -309 -5 -92
-14 -241 -20 -330 -13 -216 -29 -655 -43 -1181 -12 -415 -13 -428 -33 -449
-26 -25 -57 -19 -80 16 -13 21 -17 98 -25 522 -20 1125 -47 1720 -77 1756 -11
12 -30 17 -64 17 -41 0 -51 -3 -55 -20 -3 -11 -9 -20 -13 -20 -15 0 -20 -49
-30 -277 -5 -125 -14 -298 -20 -383 -5 -85 -14 -360 -21 -610 -22 -929 -24
-974 -37 -998 -17 -31 -58 -26 -85 9 -18 26 -20 53 -28 609 -5 320 -11 590
-13 599 -3 9 -10 129 -16 266 -6 138 -15 291 -20 340 -6 50 -14 171 -18 269
-8 169 -10 180 -31 198 -43 34 -137 17 -156 -30 -24 -58 -62 -1215 -72 -2172
-5 -589 -5 -608 15 -700 39 -176 94 -278 238 -440 164 -185 249 -311 278 -412
9 -31 26 -110 38 -175 22 -114 22 -139 22 -768 0 -629 -13 -1036 -34 -1075 -5
-10 -33 -33 -62 -51 -29 -19 -57 -37 -63 -42 -5 -4 -37 -26 -70 -49 -162 -111
-200 -139 -325 -237 -204 -160 -356 -296 -558 -498 -102 -102 -191 -183 -201
-183 -10 0 -61 38 -114 84 -192 168 -409 337 -612 475 -282 193 -468 305 -700
425 -161 84 -149 65 -163 252 -18 240 -31 1055 -21 1320 11 304 33 440 90 570
41 94 119 220 208 334 263 340 319 437 407 700 60 179 77 334 77 685 0 337
-21 560 -69 735 -14 52 -32 118 -39 145 -8 28 -28 89 -45 135 -18 47 -40 108
-50 135 -10 28 -35 83 -54 122 -20 40 -36 74 -36 77 0 2 -25 49 -57 103 -107
186 -212 312 -338 406 -167 125 -316 169 -490 147z m3387 -55 c9 -19 9 -85 0
-268 -14 -277 -15 -924 -3 -1558 8 -410 10 -438 30 -481 11 -25 35 -58 53 -73
28 -24 39 -27 88 -23 67 5 113 35 134 89 38 95 40 144 40 1239 1 1052 1 1065
21 1082 26 22 61 23 73 2 6 -10 8 -342 5 -828 -2 -446 0 -955 4 -1131 9 -320
9 -320 36 -372 34 -65 59 -83 119 -83 59 0 87 11 124 47 61 61 59 22 61 1235
1 610 5 1117 8 1129 5 16 14 20 43 17 47 -4 49 -14 39 -186 -11 -184 -1 -1825
14 -2232 11 -295 10 -334 -5 -425 -28 -161 -76 -244 -278 -478 -80 -93 -142
-185 -192 -287 -21 -41 -42 -83 -47 -93 -19 -36 -49 -233 -60 -396 -8 -109
-10 -380 -7 -792 3 -345 1 -634 -4 -642 -12 -22 -199 -118 -223 -115 -24 4
-24 -19 -7 583 16 550 9 829 -28 1145 -31 252 -100 403 -279 607 -132 150
-164 191 -201 253 -82 138 -94 243 -80 675 12 373 12 1667 1 2029 -5 158 -5
272 1 293 8 31 12 34 41 31 l32 -3 -3 -525 c-4 -576 12 -1526 28 -1660 17
-146 68 -210 166 -210 56 0 103 33 134 95 24 49 25 56 31 350 8 425 0 1701
-11 1818 -13 129 -13 137 5 137 9 0 18 7 21 15 4 9 19 15 35 15 22 0 32 -7 41
-25z m-3140 -106 c106 -37 214 -123 320 -255 63 -79 193 -300 231 -395 14 -35
36 -84 48 -109 29 -60 96 -256 120 -355 99 -399 117 -882 45 -1225 -28 -136
-49 -205 -83 -280 -14 -30 -32 -70 -40 -88 -22 -52 -102 -176 -168 -260 -222
-284 -256 -334 -330 -482 -91 -183 -106 -255 -126 -603 -12 -212 -9 -628 7
-1238 7 -227 6 -237 -12 -241 -29 -6 -205 74 -225 102 -17 23 -17 42 -7 280
14 351 4 1196 -16 1310 -8 47 -19 112 -24 145 -16 96 -41 174 -83 260 -47 93
-98 162 -224 300 -207 226 -320 390 -366 533 -6 20 -15 42 -19 47 -13 18 -48
147 -71 265 -22 106 -23 140 -23 450 -1 452 19 611 126 1025 23 91 52 163 118
300 100 206 143 278 214 354 97 103 200 165 301 181 78 14 216 3 287 -21z"/>
<path d="M27930 22440 c-37 -12 -158 -66 -335 -150 -44 -20 -102 -48 -130 -60
-52 -23 -107 -48 -258 -119 -49 -23 -90 -41 -91 -41 -2 0 -50 -22 -107 -49
-121 -56 -251 -116 -399 -184 -30 -13 -86 -39 -125 -57 -38 -18 -106 -48 -150
-68 -130 -56 -297 -146 -309 -164 -15 -25 -3 -30 30 -13 16 8 33 15 37 15 11
0 88 34 249 109 48 23 90 41 92 41 2 0 57 25 121 55 63 30 117 55 120 55 2 0
56 25 120 55 63 30 118 55 120 55 2 0 48 21 102 46 54 26 139 64 188 86 90 40
114 51 278 127 49 23 90 41 92 41 4 0 93 41 245 113 95 44 170 91 166 102 -4
13 -25 15 -56 5z"/>
<path d="M9131 22321 c-11 -7 -9 -12 10 -21 13 -7 26 -16 29 -19 7 -10 89 -56
194 -111 147 -76 307 -160 361 -190 46 -25 90 -49 345 -182 47 -25 130 -69
185 -99 55 -29 135 -71 177 -94 183 -96 278 -146 348 -185 113 -62 258 -130
291 -137 22 -4 29 -2 29 10 0 8 -8 17 -17 21 -10 3 -40 20 -67 36 -26 17 -105
60 -175 97 -69 36 -130 69 -136 73 -5 4 -53 30 -105 57 -182 96 -315 167 -355
189 -22 12 -71 39 -110 58 -38 20 -106 55 -150 79 -44 24 -147 79 -230 122
-82 43 -193 102 -245 129 -52 28 -124 66 -160 84 -36 19 -72 37 -80 42 -16 9
-117 50 -122 50 -2 0 -9 -4 -17 -9z"/>
<path d="M27030 19167 c-36 -12 -51 -41 -27 -50 8 -3 218 -8 468 -12 473 -7
514 -5 507 33 -7 37 -57 41 -493 41 -299 0 -430 -4 -455 -12z"/>
<path d="M28134 19161 c-31 -14 -37 -27 -18 -46 24 -23 182 -18 198 7 8 13 7
21 -2 30 -15 15 -148 22 -178 9z"/>
<path d="M9742 19110 c-457 -5 -457 -5 -449 -50 2 -13 59 -15 448 -14 245 1
466 4 491 8 83 12 68 68 -16 64 -23 -1 -236 -5 -474 -8z"/>
<path d="M8968 19093 c-22 -6 -31 -32 -17 -49 8 -10 37 -14 103 -14 105 0 121
7 112 44 -6 26 -8 26 -94 25 -48 -1 -94 -3 -104 -6z"/>
<path d="M12682 17311 c-189 -7 -197 -10 -187 -65 12 -66 -16 -63 538 -69 493
-6 645 -14 942 -51 304 -38 367 -47 391 -56 14 -6 39 -10 57 -10 17 0 58 -6
91 -14 34 -8 111 -24 171 -36 403 -77 1026 -266 1385 -420 25 -10 81 -34 125
-53 44 -19 105 -45 135 -58 173 -75 631 -318 795 -423 28 -18 73 -47 100 -64
353 -224 615 -431 958 -754 247 -235 539 -570 692 -796 44 -67 69 -82 132 -82
38 0 55 4 59 15 8 19 -211 331 -319 455 -12 14 -47 55 -77 90 -415 489 -1000
973 -1602 1323 -310 180 -500 276 -848 429 -25 11 -54 24 -65 29 -11 4 -72 28
-135 53 -559 215 -1093 360 -1660 451 -359 57 -391 61 -735 84 -331 23 -691
31 -943 22z"/>
<path d="M26616 16412 c-11 -19 42 -39 164 -63 30 -6 78 -17 105 -24 28 -8 75
-19 105 -25 30 -6 84 -17 120 -24 36 -8 124 -26 195 -40 72 -14 146 -30 165
-36 19 -5 49 -10 66 -10 17 0 48 -7 67 -15 20 -8 49 -15 65 -15 16 0 58 -9 92
-20 34 -11 78 -20 97 -20 19 0 44 -5 55 -11 11 -6 44 -14 72 -19 66 -9 248
-45 357 -70 47 -11 95 -20 105 -20 10 0 37 -7 59 -15 22 -8 57 -14 77 -15 21
0 55 -6 75 -14 21 -7 65 -18 98 -24 33 -6 94 -18 135 -27 116 -24 288 -48 305
-41 8 3 15 9 15 14 0 13 -96 51 -144 58 -23 3 -61 12 -86 19 -25 8 -70 18
-100 24 -30 5 -77 14 -105 20 -145 32 -199 43 -295 62 -58 12 -131 25 -163 30
-32 5 -66 13 -75 18 -9 5 -44 12 -77 16 -33 4 -69 12 -79 17 -11 6 -45 14 -75
18 -31 4 -76 12 -101 18 -46 11 -133 29 -275 57 -44 9 -109 22 -145 30 -36 8
-78 16 -95 19 -16 2 -48 9 -70 15 -38 9 -61 14 -220 46 -38 8 -92 19 -120 25
-27 6 -79 17 -115 25 -90 20 -246 30 -254 17z"/>
<path d="M10590 16379 c-25 -5 -54 -13 -65 -19 -11 -5 -38 -14 -60 -19 -22 -5
-53 -14 -70 -19 -16 -6 -64 -20 -105 -32 -41 -12 -102 -30 -135 -40 -147 -45
-199 -60 -211 -60 -7 0 -28 -6 -46 -14 -18 -8 -67 -24 -108 -36 -41 -12 -93
-28 -115 -35 -22 -7 -83 -25 -135 -40 -52 -14 -113 -32 -135 -39 -22 -7 -74
-23 -115 -36 -41 -12 -91 -28 -110 -35 -58 -21 -344 -105 -356 -105 -7 0 -25
-7 -40 -15 -16 -8 -40 -15 -54 -15 -14 0 -34 -6 -45 -14 -11 -7 -38 -16 -59
-20 -21 -4 -48 -13 -60 -21 -12 -7 -35 -16 -53 -20 -18 -3 -39 -17 -48 -32
l-17 -26 33 6 c34 7 116 26 199 48 25 6 59 17 75 25 17 8 46 17 65 20 19 4 44
11 55 17 11 6 36 14 55 18 19 4 49 12 65 18 17 6 71 22 120 36 180 52 231 67
263 81 18 8 42 14 53 14 12 0 35 6 52 14 18 8 66 24 107 36 206 60 248 73 280
86 19 7 50 16 68 19 18 4 45 13 60 21 15 8 39 14 53 14 14 0 34 7 45 15 10 8
27 15 38 15 18 0 44 8 266 80 52 17 110 35 129 40 19 5 48 15 65 24 17 8 39
17 48 20 16 5 15 38 -1 35 -3 -1 -26 -5 -51 -10z"/>
<path d="M12803 16344 c-17 -8 -17 -89 0 -103 17 -14 34 -16 242 -36 94 -9
213 -23 265 -31 53 -7 107 -14 121 -14 14 0 51 -7 84 -15 33 -9 84 -20 115
-25 113 -17 268 -49 370 -75 58 -15 130 -33 160 -40 68 -16 145 -38 230 -64
36 -11 94 -29 130 -39 98 -30 368 -127 425 -152 28 -12 73 -30 100 -40 54 -19
116 -46 265 -117 186 -88 327 -162 510 -266 72 -41 290 -184 395 -259 247
-176 458 -357 658 -566 197 -205 204 -210 264 -218 66 -8 89 6 70 41 -21 41
-244 280 -374 402 -70 65 -134 125 -144 134 -92 89 -399 322 -567 431 -160
105 -220 141 -392 236 -78 43 -362 186 -430 216 -127 57 -326 138 -370 152
-25 8 -59 21 -77 29 -17 8 -36 15 -41 15 -6 0 -23 7 -39 15 -34 17 -324 109
-408 129 -33 8 -73 19 -90 24 -65 22 -173 51 -240 66 -38 8 -111 24 -161 36
-139 31 -338 65 -529 90 -44 6 -118 17 -165 25 -89 15 -356 28 -377 19z"/>
<path d="M24350 16300 c-8 -6 -46 -19 -85 -31 -87 -26 -277 -99 -370 -143
-229 -108 -468 -230 -545 -280 -19 -12 -80 -51 -135 -87 -294 -188 -605 -446
-860 -714 -71 -75 -134 -142 -140 -148 -5 -7 -35 -41 -66 -77 -48 -56 -80 -98
-196 -255 -31 -42 -143 -209 -186 -277 -52 -82 -36 -115 54 -106 31 3 41 14
149 174 306 455 612 777 1067 1124 216 165 622 401 873 509 41 18 95 42 119
53 25 11 83 33 130 50 48 17 105 39 128 49 23 10 46 19 52 19 34 0 112 114 96
141 -8 12 -66 11 -85 -1z"/>
<path d="M5965 15529 c-77 -4 -171 -12 -210 -18 -151 -22 -212 -32 -255 -43
-25 -6 -63 -14 -85 -18 -102 -19 -272 -72 -545 -170 -63 -23 -131 -46 -150
-52 -59 -17 -248 -116 -344 -180 -121 -81 -140 -96 -174 -143 -18 -25 -51 -51
-88 -69 -67 -34 -95 -57 -217 -179 -128 -129 -211 -263 -290 -467 -55 -143
-74 -203 -82 -260 -3 -25 -11 -68 -17 -97 -23 -110 38 -395 114 -533 60 -107
167 -224 261 -284 112 -71 346 -136 486 -136 125 0 346 68 431 132 65 49 142
136 173 197 37 70 67 183 67 251 0 67 -30 191 -57 238 -65 111 -188 205 -286
218 -116 16 -196 -74 -137 -155 10 -16 64 -58 120 -95 136 -92 180 -153 180
-253 0 -92 -100 -211 -226 -270 -53 -25 -69 -28 -159 -27 -100 1 -137 10 -241
61 -53 25 -197 167 -249 244 -53 80 -109 216 -127 307 -33 179 33 484 153 707
30 56 69 101 181 211 150 147 186 175 308 238 41 22 116 62 165 90 153 87 238
123 515 216 158 52 296 80 401 80 37 0 154 7 260 16 382 32 797 -10 1051 -106
77 -29 186 -102 288 -193 47 -42 90 -82 95 -89 6 -7 34 -39 63 -72 113 -125
179 -252 233 -446 21 -75 24 -106 24 -265 0 -187 -15 -288 -65 -435 -54 -161
-181 -362 -330 -524 -175 -192 -370 -315 -595 -378 -78 -22 -288 -28 -323 -9
-11 6 -37 15 -58 20 -22 5 -75 23 -119 40 -132 51 -203 38 -244 -44 -28 -57
-28 -122 2 -166 39 -58 90 -78 224 -90 167 -14 350 -44 403 -65 72 -28 230
-110 290 -150 30 -19 66 -42 80 -49 39 -21 152 -135 202 -206 92 -129 132
-215 173 -374 47 -183 60 -296 59 -520 0 -186 -4 -225 -27 -340 -39 -192 -87
-303 -211 -490 -74 -110 -203 -253 -306 -337 -41 -33 -144 -89 -244 -132 -148
-65 -364 -103 -516 -92 -222 16 -470 85 -524 145 -11 11 -25 21 -32 21 -7 0
-26 11 -42 25 -17 14 -36 25 -44 25 -8 0 -34 21 -58 46 -25 25 -69 64 -98 86
-29 21 -81 74 -115 116 -84 105 -145 162 -173 162 -14 0 -31 -12 -45 -31 -44
-62 -1 -179 122 -339 82 -105 147 -165 262 -238 49 -31 103 -67 120 -79 76
-52 135 -80 180 -86 26 -4 64 -15 85 -25 117 -59 452 -94 688 -72 211 19 308
38 454 87 233 78 460 223 645 412 108 110 149 166 212 286 44 85 110 272 119
340 3 22 12 58 19 80 17 51 35 260 35 390 -1 110 -23 325 -41 395 -43 165 -58
209 -118 330 -129 260 -357 494 -641 656 -52 30 -106 57 -120 61 -14 3 -45 17
-69 30 -32 19 -40 28 -30 33 15 8 72 27 249 80 118 36 325 138 457 226 104 68
301 260 362 352 95 141 158 290 208 491 25 97 27 122 27 311 1 216 -4 247 -60
455 -44 160 -162 363 -278 480 -109 109 -260 210 -466 311 -88 42 -286 114
-317 114 -9 0 -39 6 -67 14 -96 27 -241 47 -461 61 -235 16 -255 16 -470 4z"/>
<path d="M13063 15483 c-10 -26 39 -102 84 -132 23 -16 79 -43 125 -61 46 -17
110 -42 143 -55 265 -103 653 -296 815 -405 14 -9 59 -39 100 -65 235 -152
480 -343 666 -521 187 -180 192 -184 229 -184 20 0 45 5 56 10 43 23 24 52
-143 216 -90 88 -185 177 -212 199 -27 22 -69 56 -92 77 -138 117 -433 322
-634 439 -122 71 -486 259 -501 259 -4 0 -45 18 -91 39 -46 22 -112 49 -148
61 -35 12 -75 27 -90 35 -24 12 -164 61 -258 90 -38 12 -44 11 -49 -2z"/>
<path d="M6674 14814 c-52 -25 -254 -196 -349 -295 -125 -130 -237 -268 -364
-448 -30 -42 -75 -103 -101 -136 -59 -76 -214 -312 -313 -477 -64 -106 -150
-273 -220 -428 -8 -19 -40 -87 -69 -150 -48 -100 -129 -298 -189 -455 -26 -69
-127 -332 -144 -375 -8 -19 -17 -46 -20 -60 -8 -31 -49 -136 -81 -209 -14 -30
-42 -73 -64 -97 -27 -29 -40 -53 -40 -71 0 -16 -11 -49 -24 -74 -14 -25 -24
-55 -24 -65 1 -11 -39 -100 -89 -200 -50 -99 -109 -222 -131 -274 -22 -52 -71
-147 -107 -210 -37 -63 -99 -177 -137 -254 -166 -331 -340 -576 -526 -742
-165 -148 -293 -225 -472 -287 -191 -66 -273 -80 -450 -74 -287 10 -421 61
-535 204 -91 114 -156 271 -176 426 -12 98 1 328 26 427 47 193 63 247 101
350 73 200 117 266 218 332 125 81 287 107 424 69 174 -48 272 -151 272 -287
0 -67 -26 -111 -121 -210 -98 -102 -105 -120 -68 -180 59 -96 167 -98 262 -6
145 141 187 415 90 592 -67 124 -135 204 -211 248 -38 22 -91 47 -118 55 -143
46 -442 49 -559 5 -290 -108 -496 -324 -613 -643 -52 -143 -66 -237 -65 -450
2 -424 74 -629 301 -853 76 -74 98 -89 226 -152 209 -102 323 -130 571 -137
294 -8 451 27 777 175 216 98 472 336 683 632 102 144 186 274 230 355 27 50
99 178 161 285 61 107 125 220 142 250 70 129 86 156 102 175 23 27 60 102 60
120 0 9 63 140 139 293 150 299 316 639 376 767 55 117 94 203 122 265 22 48
69 172 150 390 13 36 31 83 39 105 8 22 23 63 33 90 10 28 45 109 78 180 33
72 107 236 163 365 97 220 128 283 184 370 13 19 43 67 67 105 112 179 253
341 403 465 138 114 162 155 114 200 -26 24 -89 27 -134 4z"/>
<path d="M33383 14196 c-4 -7 -18 -18 -30 -25 -23 -12 -95 -115 -147 -211 -16
-30 -47 -86 -68 -125 -101 -185 -251 -501 -284 -600 -68 -205 -44 -331 71
-375 38 -15 111 -14 149 1 16 7 45 28 65 46 20 18 44 36 54 39 11 3 37 24 58
45 21 21 45 39 53 39 8 0 17 8 21 19 3 10 14 26 25 36 56 51 -15 215 -111 257
-69 29 -93 58 -87 106 7 49 93 235 157 340 19 31 36 45 61 52 40 11 94 61 109
103 6 16 11 62 11 104 0 60 -4 83 -22 112 -12 20 -27 39 -32 43 -17 12 -44 9
-53 -6z"/>
<path d="M22825 14155 c-5 -2 -31 -6 -57 -10 -94 -12 -129 -61 -235 -324 -85
-213 -85 -211 -160 -466 -103 -352 -109 -371 -163 -504 -25 -61 -75 -195 -95
-256 -8 -22 -23 -65 -35 -95 -11 -30 -44 -125 -71 -210 -54 -164 -88 -255
-152 -410 -41 -101 -85 -228 -137 -400 -43 -141 -78 -208 -225 -431 -126 -191
-239 -327 -405 -485 -261 -250 -548 -386 -612 -290 -30 45 44 325 152 571 5
11 21 52 35 90 30 78 60 155 80 200 143 322 217 674 202 959 -7 132 -24 191
-84 309 -76 147 -156 218 -300 266 -80 27 -252 29 -334 5 -66 -20 -154 -63
-223 -111 -71 -49 -216 -193 -286 -283 -31 -41 -67 -83 -79 -94 -20 -18 -21
-18 -27 -1 -10 26 8 85 76 249 33 80 63 160 67 178 3 18 32 92 63 163 32 72
72 168 90 215 18 47 40 103 50 125 9 22 33 78 53 125 118 279 176 408 231 510
112 210 123 246 84 295 -36 46 -91 65 -196 65 -171 0 -209 -32 -297 -252 -25
-62 -50 -122 -55 -133 -17 -36 -87 -238 -114 -330 -54 -182 -69 -233 -111
-365 -24 -74 -62 -180 -85 -235 -44 -105 -62 -154 -85 -220 -8 -22 -26 -71
-40 -110 -15 -38 -48 -135 -75 -215 -27 -80 -58 -170 -70 -200 -12 -30 -37
-100 -55 -155 -18 -55 -51 -138 -73 -185 -22 -47 -54 -116 -72 -155 -35 -76
-204 -372 -248 -434 -162 -230 -336 -431 -457 -528 -108 -87 -326 -230 -400
-263 -33 -15 -148 -57 -256 -93 -168 -57 -211 -67 -303 -75 -126 -11 -238 3
-306 38 -91 46 -201 194 -230 308 -10 39 -10 71 0 163 12 116 43 280 59 321 6
13 22 64 37 113 70 227 200 471 396 746 223 311 428 534 553 602 38 21 85 42
105 47 19 5 56 14 81 21 131 33 229 -44 229 -182 0 -55 -37 -184 -76 -263 -59
-119 -185 -284 -264 -345 -105 -82 -140 -141 -140 -238 0 -72 22 -107 84 -138
63 -31 98 -31 188 0 100 35 146 64 214 138 151 161 264 434 280 677 15 222
-81 442 -226 515 -111 56 -324 82 -425 51 -27 -8 -84 -25 -125 -37 -138 -41
-361 -169 -535 -307 -92 -74 -412 -388 -485 -477 -84 -103 -163 -229 -224
-357 -29 -62 -57 -123 -61 -136 -4 -13 -22 -57 -41 -98 -19 -41 -34 -80 -34
-87 -3 -79 -300 -477 -498 -666 -115 -109 -335 -263 -432 -301 -64 -26 -149
-31 -173 -11 -24 20 -22 91 8 205 24 94 185 544 243 681 16 39 46 120 65 180
34 103 50 159 91 310 43 160 58 447 30 582 -28 135 -107 281 -193 352 -160
134 -379 164 -582 80 -172 -70 -308 -172 -435 -323 -73 -88 -94 -108 -94 -90
0 9 25 89 55 179 30 91 55 177 55 194 0 16 -9 39 -19 52 -19 24 -22 24 -183
21 -147 -2 -167 -5 -208 -26 l-45 -23 3 -108 c3 -137 -3 -166 -100 -459 -64
-194 -98 -278 -174 -431 -125 -252 -208 -402 -280 -505 -269 -386 -414 -549
-634 -712 -316 -233 -425 -300 -549 -334 -60 -17 -64 -17 -96 0 -20 11 -38 31
-44 49 -27 75 -4 257 57 457 60 198 138 373 407 915 184 371 235 463 401 729
97 154 164 299 164 353 0 42 -27 80 -67 94 -21 7 -83 13 -138 13 -160 1 -217
-37 -314 -209 -82 -143 -77 -142 -161 -57 -113 114 -165 151 -259 183 -166 57
-461 16 -671 -94 -83 -44 -203 -119 -295 -185 -33 -23 -85 -60 -115 -81 -102
-72 -261 -241 -348 -370 -45 -67 -82 -124 -82 -127 0 -3 -17 -36 -39 -72 -71
-122 -98 -177 -165 -332 -101 -234 -100 -233 -199 -367 -250 -342 -407 -491
-773 -739 -208 -140 -314 -182 -396 -155 -65 22 -80 107 -49 281 11 63 25 129
30 145 6 17 20 64 31 105 42 152 192 601 228 684 9 22 72 151 139 287 124 250
153 319 193 464 22 78 37 130 80 270 12 39 24 108 27 155 5 78 3 88 -19 120
-51 76 -115 81 -242 21 -118 -56 -185 -77 -281 -91 -44 -6 -98 -15 -120 -21
-55 -13 -401 -23 -450 -12 l-40 9 -1 90 c-1 156 -28 232 -106 304 -56 52 -124
74 -208 66 -158 -14 -240 -77 -274 -211 -14 -54 -14 -66 0 -120 34 -130 111
-203 274 -260 83 -29 89 -44 50 -130 -41 -91 -171 -371 -180 -387 -27 -49 -60
-146 -60 -177 0 -42 7 -54 38 -70 53 -28 97 27 188 237 26 59 70 154 99 212
28 58 64 137 80 175 15 39 33 73 39 77 21 14 131 8 221 -13 86 -19 216 -37
424 -60 52 -6 98 -12 103 -15 13 -8 9 -48 -7 -70 -14 -22 -35 -73 -61 -155
-29 -96 -124 -318 -189 -449 -37 -74 -78 -162 -90 -195 -13 -33 -40 -96 -60
-140 -65 -140 -174 -425 -199 -519 -53 -193 -67 -449 -32 -564 25 -82 87 -150
171 -189 54 -24 71 -27 170 -28 185 0 338 55 572 208 251 164 414 300 607 507
92 100 96 98 83 -43 -5 -56 -4 -143 3 -222 12 -152 35 -212 118 -311 73 -88
153 -139 244 -155 112 -19 299 1 437 47 133 44 342 149 444 223 159 116 168
116 186 10 20 -121 74 -200 171 -251 40 -21 58 -23 165 -22 99 1 135 6 210 28
107 32 273 114 370 182 39 27 90 62 115 79 108 71 315 243 391 323 45 48 120
136 168 196 47 60 103 128 123 150 36 39 38 40 38 16 0 -14 -12 -56 -26 -95
-14 -38 -49 -140 -78 -225 -47 -138 -82 -236 -148 -420 -30 -82 -28 -124 5
-157 27 -27 30 -28 145 -28 131 1 175 15 226 76 36 42 48 75 92 236 20 76 45
167 55 203 9 36 38 139 62 230 46 169 52 188 132 445 26 83 54 173 62 200 47
156 156 386 250 528 78 115 223 284 330 382 103 95 127 112 218 160 164 85
302 66 372 -52 32 -55 82 -228 89 -312 17 -196 -58 -560 -206 -996 -198 -585
-183 -540 -220 -705 -50 -225 -4 -368 133 -414 61 -21 96 -20 182 3 127 34
238 95 416 229 131 99 170 134 426 386 73 71 136 126 140 122 5 -4 10 -69 13
-144 6 -136 6 -137 49 -226 35 -73 59 -105 130 -176 89 -89 145 -127 228 -153
45 -15 76 -20 260 -47 227 -32 415 5 788 156 154 62 225 93 320 141 67 34 103
57 300 191 94 64 218 178 298 272 37 43 49 52 59 42 9 -9 -1 -52 -51 -200 -35
-103 -71 -205 -81 -227 -120 -275 -119 -341 9 -365 96 -18 253 35 305 102 27
36 57 111 80 203 9 34 26 94 39 135 14 41 37 116 52 165 15 50 42 135 60 190
18 55 58 181 90 280 31 99 67 205 80 235 13 30 31 80 41 110 43 137 128 288
264 470 31 41 76 102 101 134 124 166 388 420 492 472 114 59 244 39 306 -46
50 -70 111 -288 111 -402 0 -210 -118 -676 -307 -1203 -21 -60 -54 -164 -72
-230 -18 -66 -40 -145 -49 -175 -11 -38 -16 -96 -17 -187 0 -130 0 -132 30
-175 37 -53 120 -97 183 -98 101 0 265 66 412 166 153 104 191 132 270 199 89
75 351 341 400 406 42 56 76 75 83 47 3 -10 1 -99 -5 -196 -9 -154 -8 -190 7
-277 19 -111 20 -113 65 -205 25 -52 45 -76 102 -120 38 -30 86 -64 106 -74
56 -29 205 -56 312 -56 109 0 295 29 405 64 28 8 129 38 225 66 489 142 667
218 973 417 113 73 234 173 331 273 48 50 91 89 94 86 3 -3 6 -129 6 -278 1
-259 2 -275 23 -320 103 -225 293 -301 628 -252 172 25 409 111 519 187 75 52
198 161 251 221 40 46 64 66 81 66 26 0 27 -2 44 -119 22 -151 90 -243 213
-289 77 -29 143 -28 252 4 135 39 239 98 420 239 237 184 582 625 837 1069 73
127 267 509 312 616 10 25 45 99 76 165 31 66 69 152 85 190 15 39 39 80 53
93 28 27 43 26 237 -13 66 -14 163 -29 215 -35 308 -33 300 -32 300 -55 0 -16
-69 -208 -137 -380 -19 -49 -71 -161 -115 -249 -43 -87 -88 -184 -99 -215 -12
-31 -40 -99 -65 -151 -49 -107 -141 -342 -173 -440 -50 -157 -63 -247 -65
-440 -1 -166 1 -189 19 -225 29 -60 94 -119 171 -156 61 -30 80 -34 164 -37
175 -7 334 51 565 206 113 75 256 182 388 289 32 27 98 91 145 143 95 103 143
150 153 150 4 0 9 -87 11 -192 3 -168 7 -203 27 -268 45 -142 107 -210 263
-289 151 -76 289 -79 509 -10 89 27 317 136 409 194 22 14 44 25 50 25 13 0
13 -47 1 -55 -12 -7 -84 -156 -100 -206 -18 -56 -31 -65 -266 -189 -244 -129
-458 -260 -580 -354 -33 -26 -135 -119 -227 -207 -269 -258 -356 -391 -405
-624 -53 -254 -11 -449 130 -602 59 -65 113 -98 196 -123 61 -19 89 -22 171
-18 87 4 105 9 173 42 98 49 210 153 339 315 92 115 109 144 262 450 90 179
203 416 251 526 137 316 155 354 211 466 56 112 64 121 159 158 99 40 641 308
770 381 110 63 153 93 291 204 79 64 293 277 327 326 17 25 47 62 68 84 20 21
52 63 70 93 19 30 47 71 63 91 29 37 111 159 132 197 6 11 40 67 76 125 35 58
88 152 117 210 30 58 71 137 91 175 21 39 50 102 65 140 81 204 240 465 333
547 56 49 129 98 147 98 14 0 16 -6 11 -27 -3 -16 -9 -71 -12 -123 -5 -77 -3
-110 14 -175 11 -44 22 -98 26 -121 8 -57 62 -188 150 -361 130 -259 186 -432
186 -573 0 -114 -12 -157 -48 -164 -15 -3 -121 -10 -235 -16 -277 -14 -436
-48 -622 -135 -123 -57 -190 -108 -255 -195 -52 -70 -70 -132 -70 -241 0 -134
28 -192 141 -296 14 -12 69 -38 124 -58 98 -36 103 -36 242 -36 129 0 153 3
250 31 308 88 535 224 669 401 52 68 115 185 144 269 13 36 30 72 39 81 12 12
61 20 191 32 261 25 376 60 522 158 155 104 323 303 431 509 199 383 216 430
161 451 -58 21 -72 3 -206 -261 -52 -102 -124 -229 -160 -284 -109 -164 -286
-326 -398 -365 -95 -34 -205 -61 -281 -70 -97 -13 -189 -14 -205 -3 -22 14
-34 52 -34 104 0 100 -47 308 -106 463 -74 197 -110 276 -234 520 -76 149
-142 288 -146 310 -4 22 -16 63 -26 90 -25 63 -19 122 17 187 39 69 125 114
266 138 118 20 180 -9 302 -142 47 -52 93 -92 118 -103 37 -17 45 -17 82 -4
34 11 47 23 65 59 44 87 19 184 -71 272 -74 73 -155 112 -286 139 -101 21
-106 21 -190 4 -152 -30 -228 -60 -388 -151 -153 -88 -242 -155 -354 -266
-156 -154 -288 -337 -389 -538 -85 -169 -110 -220 -110 -225 0 -7 -168 -345
-178 -358 -5 -6 -12 -30 -15 -51 -4 -24 -18 -51 -37 -71 -16 -17 -30 -36 -30
-41 0 -6 -12 -24 -26 -40 -14 -16 -32 -42 -39 -59 -7 -16 -43 -59 -80 -95 -37
-35 -81 -85 -98 -110 -192 -283 -556 -574 -879 -704 -132 -52 -309 -109 -379
-121 -41 -8 -54 8 -43 53 8 34 67 154 93 190 29 42 86 162 114 244 30 87 62
171 82 215 8 17 15 34 15 38 0 7 15 41 95 210 61 131 77 168 105 240 21 57
208 435 302 612 39 75 132 233 274 468 87 145 114 208 114 268 0 43 -5 58 -23
76 -50 46 -246 52 -334 10 -55 -27 -86 -63 -156 -186 -67 -116 -89 -133 -122
-88 -89 123 -144 169 -286 241 -91 46 -255 84 -360 84 -157 0 -404 -87 -560
-196 -75 -52 -179 -154 -253 -249 -68 -86 -247 -346 -309 -448 -63 -103 -199
-360 -226 -428 -8 -18 -30 -68 -49 -109 -19 -41 -40 -92 -48 -112 -37 -105
-296 -441 -461 -599 -146 -139 -473 -375 -625 -451 -107 -54 -190 -63 -233
-25 -26 22 -30 32 -33 97 -8 139 51 391 171 730 84 235 97 275 97 293 0 10 38
95 84 190 177 365 205 424 226 482 89 250 169 532 170 597 0 45 -30 116 -60
143 -38 34 -118 27 -220 -19 -113 -51 -184 -74 -266 -86 -38 -5 -91 -14 -119
-20 -69 -14 -378 -24 -445 -13 l-55 9 3 82 c4 79 -15 189 -40 235 -19 37 -83
99 -122 120 -32 17 -58 22 -121 22 -108 0 -165 -18 -225 -72 -113 -102 -120
-274 -15 -391 43 -48 113 -90 232 -138 75 -30 78 -20 -102 -399 -110 -233
-242 -496 -292 -582 -29 -50 -53 -93 -53 -96 0 -16 -239 -384 -329 -507 -77
-106 -286 -344 -368 -420 -191 -176 -420 -300 -555 -300 -49 0 -63 4 -83 24
-13 13 -27 37 -31 52 -11 44 13 181 61 347 53 185 90 279 187 467 40 80 89
179 108 220 31 71 69 152 127 280 14 30 32 71 40 90 9 19 24 53 34 75 10 22
38 91 63 152 25 62 50 121 55 130 6 10 22 44 36 76 59 134 115 254 189 407 49
102 56 122 56 177 0 66 -16 94 -68 114 -39 15 -153 10 -242 -11 -173 -42 -215
-91 -318 -370 -37 -99 -191 -464 -213 -504 -6 -10 -26 -60 -44 -110 -18 -50
-38 -102 -43 -116 -73 -173 -210 -540 -247 -660 -15 -47 -40 -123 -57 -170
-16 -47 -34 -101 -40 -120 -5 -19 -40 -84 -77 -145 -53 -88 -82 -123 -146
-179 -245 -212 -476 -297 -644 -236 -98 36 -151 112 -151 213 1 57 4 75 49
252 16 66 49 201 71 300 82 356 198 704 332 995 16 36 41 92 55 125 14 33 31
74 38 90 8 17 34 77 59 135 24 58 67 153 95 212 42 88 51 117 51 161 0 50 -3
58 -34 85 -40 35 -114 49 -199 37 -29 -4 -148 -10 -265 -14 -246 -9 -257 -13
-280 -96 -17 -60 -9 -105 26 -137 25 -24 36 -26 128 -30 116 -4 154 -20 154
-65 0 -33 -92 -226 -286 -603 -38 -74 -77 -155 -87 -180 -29 -73 -161 -310
-220 -397 -71 -104 -184 -249 -266 -342 -173 -194 -457 -395 -726 -514 -140
-62 -360 -137 -401 -137 -62 0 -60 3 89 128 93 78 159 155 254 297 103 153
121 187 323 610 120 251 150 402 150 759 0 274 -9 332 -74 468 -69 145 -158
226 -294 268 -130 40 -369 18 -516 -49 -22 -11 -76 -35 -120 -55 -43 -20 -104
-52 -136 -71 -62 -38 -90 -44 -90 -20 0 8 20 59 44 112 24 54 56 130 71 168
15 39 33 84 41 100 7 17 28 71 47 120 130 344 291 706 392 885 86 151 90 203
17 254 -43 29 -169 54 -207 41z m-14311 -1388 c23 -64 40 -187 28 -199 -15
-15 -57 -2 -83 25 -74 77 -78 218 -6 229 30 5 43 -7 61 -55z m19233 31 c13
-17 52 -208 46 -225 -8 -20 -47 -15 -78 9 -32 25 -75 111 -75 151 0 37 25 84
47 89 20 5 45 -5 60 -24z m-4683 -332 c102 -31 146 -91 187 -256 22 -85 24
-115 23 -290 -1 -107 -7 -217 -13 -245 -6 -27 -18 -86 -25 -130 -25 -143 -72
-293 -166 -535 -23 -58 -57 -148 -75 -200 -82 -230 -196 -414 -355 -571 -37
-36 -87 -80 -112 -97 -153 -105 -376 -146 -511 -94 -147 57 -206 112 -255 245
-44 118 -24 279 63 502 13 33 33 94 45 135 30 104 109 320 197 540 41 102 97
250 125 330 65 190 103 257 202 359 158 163 441 316 592 320 17 1 52 -5 78
-13z m8376 -38 c77 -20 188 -74 227 -110 28 -26 53 -99 53 -156 0 -49 -39
-149 -121 -308 -27 -52 -63 -136 -80 -187 -18 -50 -44 -117 -59 -147 -15 -30
-40 -91 -55 -135 -34 -101 -72 -196 -140 -355 -29 -69 -61 -150 -70 -180 -19
-60 -84 -195 -144 -298 -51 -88 -141 -185 -252 -272 -115 -91 -179 -128 -259
-151 -80 -23 -126 -24 -204 -2 -53 14 -70 26 -132 88 -61 61 -75 82 -95 141
-21 61 -23 86 -22 224 1 160 -1 148 67 430 7 30 23 89 36 130 12 41 27 95 34
120 40 140 193 515 293 715 104 207 189 298 376 399 153 82 363 103 547 54z
m-19124 -63 c111 -21 141 -53 159 -171 8 -55 -10 -116 -78 -257 -30 -61 -64
-132 -75 -157 -11 -25 -34 -75 -51 -113 -17 -37 -31 -69 -31 -71 0 -2 -39 -84
-86 -182 -115 -238 -130 -272 -170 -384 -67 -184 -144 -419 -144 -438 0 -42
-135 -194 -265 -299 -130 -104 -206 -147 -298 -168 -91 -20 -121 -19 -197 7
-84 28 -153 95 -199 192 -32 69 -33 70 -34 230 0 130 4 183 22 275 83 413 205
752 369 1026 183 305 410 475 687 514 101 14 307 12 391 -4z m21742 -1672 c20
-18 20 -18 -17 -128 -60 -175 -129 -274 -263 -380 -111 -88 -159 -114 -248
-132 -62 -13 -86 -13 -145 -3 -87 15 -138 44 -203 114 -101 111 -92 246 23
361 58 58 106 87 195 118 139 47 262 64 491 66 127 1 150 -1 167 -16z m-3418
-1208 c0 -26 -10 -45 -141 -285 -38 -69 -74 -141 -80 -160 -7 -19 -15 -40 -20
-45 -4 -6 -46 -105 -92 -220 -47 -116 -99 -243 -116 -284 -16 -41 -33 -87 -36
-103 -4 -16 -13 -41 -21 -56 -8 -15 -14 -33 -14 -40 0 -25 -52 -127 -91 -179
-62 -83 -142 -113 -209 -78 -20 10 -35 32 -51 72 -21 53 -23 74 -24 243 0 214
5 238 90 415 121 251 203 338 550 585 257 183 255 182 255 135z"/>
<path d="M26044 14136 c-11 -28 -33 -14 276 -164 176 -85 224 -108 385 -182
39 -18 98 -45 133 -62 73 -34 97 -34 97 2 0 26 -35 47 -215 129 -41 19 -115
53 -165 76 -225 106 -267 125 -272 125 -3 0 -42 18 -86 39 -101 48 -145 59
-153 37z"/>
<path d="M11325 14055 c-38 -24 -97 -60 -130 -80 -33 -19 -143 -87 -245 -149
-102 -63 -210 -129 -240 -147 -90 -52 -121 -80 -118 -103 6 -41 34 -32 188 64
8 6 74 46 145 90 408 252 510 321 510 345 0 34 -36 27 -110 -20z"/>
<path d="M27057 13683 c-4 -3 -7 -17 -7 -30 0 -21 13 -30 86 -64 67 -31 89
-37 100 -28 35 29 7 58 -101 106 -54 24 -68 27 -78 16z"/>
<path d="M10362 13463 c-58 -36 -72 -50 -70 -67 5 -34 39 -30 113 13 73 43 89
60 79 85 -10 27 -45 18 -122 -31z"/>
<path d="M32212 9978 c-7 -7 -12 -19 -12 -28 0 -16 -20 -65 -40 -100 -12 -21
-136 -272 -144 -290 -3 -8 -10 -22 -15 -30 -5 -8 -14 -26 -20 -40 -7 -14 -27
-52 -46 -85 -19 -33 -37 -67 -40 -75 -3 -8 -17 -36 -30 -63 -14 -26 -25 -53
-25 -60 0 -8 -9 -24 -20 -37 -11 -13 -20 -31 -20 -40 0 -10 -7 -23 -15 -30 -8
-7 -15 -18 -15 -26 0 -7 -13 -28 -28 -46 -16 -18 -41 -59 -57 -90 -15 -32 -36
-65 -47 -74 -10 -10 -18 -25 -18 -34 0 -9 -9 -25 -20 -35 -11 -10 -20 -24 -20
-32 0 -14 -48 -103 -60 -113 -4 -3 -24 -38 -45 -78 -21 -40 -46 -77 -56 -82
-9 -6 -20 -23 -24 -39 -3 -16 -13 -35 -21 -42 -8 -6 -14 -17 -14 -24 0 -8 -11
-27 -25 -43 -14 -17 -25 -35 -25 -42 0 -7 -16 -30 -35 -51 -19 -22 -35 -44
-35 -50 0 -6 -12 -25 -26 -43 -44 -53 -73 -99 -105 -164 -17 -34 -44 -76 -60
-92 -16 -15 -29 -38 -29 -50 0 -11 -7 -23 -15 -27 -9 -3 -25 -23 -36 -45 -11
-21 -38 -58 -59 -81 -22 -23 -40 -47 -40 -52 0 -6 -18 -31 -41 -55 -22 -25
-46 -59 -54 -75 -7 -17 -23 -39 -34 -49 -12 -11 -21 -24 -21 -31 0 -6 -22 -36
-50 -66 -27 -29 -50 -60 -50 -67 0 -7 -20 -35 -45 -61 -25 -26 -45 -54 -45
-61 0 -7 -27 -41 -60 -76 -33 -34 -60 -68 -60 -76 0 -8 -25 -38 -56 -68 -30
-30 -63 -68 -71 -85 -9 -16 -40 -56 -69 -87 -30 -31 -54 -63 -54 -70 0 -7 -54
-67 -121 -133 -66 -66 -126 -133 -133 -150 -7 -16 -52 -68 -101 -115 -48 -47
-93 -99 -101 -117 -16 -38 -714 -739 -745 -748 -12 -4 -88 -73 -168 -152 -80
-80 -159 -152 -176 -160 -16 -9 -68 -53 -115 -98 -47 -46 -98 -90 -115 -98
-16 -9 -66 -52 -110 -96 -44 -45 -85 -81 -93 -81 -7 0 -44 -29 -82 -65 -38
-36 -75 -65 -83 -65 -7 0 -31 -18 -52 -40 -21 -22 -46 -40 -55 -40 -8 0 -41
-25 -73 -55 -31 -30 -64 -55 -72 -55 -9 0 -39 -24 -68 -54 -28 -30 -63 -57
-77 -61 -13 -4 -37 -21 -53 -36 -16 -16 -33 -29 -39 -29 -6 0 -31 -17 -57 -38
-25 -21 -62 -48 -83 -60 -20 -12 -39 -29 -42 -37 -3 -8 -15 -15 -26 -15 -11 0
-28 -8 -38 -18 -10 -10 -36 -29 -57 -42 -22 -13 -58 -41 -80 -62 -22 -21 -46
-38 -54 -38 -7 0 -27 -12 -45 -26 -49 -40 -96 -71 -156 -101 -30 -15 -72 -42
-93 -60 -20 -18 -43 -33 -51 -33 -7 0 -19 -7 -26 -15 -16 -19 -98 -65 -117
-65 -8 0 -30 -16 -50 -35 -20 -19 -42 -35 -50 -35 -7 0 -22 -9 -33 -20 -23
-23 -145 -90 -164 -90 -8 0 -29 -14 -47 -30 -19 -17 -89 -58 -156 -91 -67 -33
-127 -67 -134 -75 -7 -8 -26 -22 -43 -29 -17 -8 -38 -19 -46 -24 -8 -5 -26
-14 -40 -20 -14 -6 -32 -15 -40 -20 -34 -21 -246 -121 -256 -121 -6 0 -19 -9
-29 -20 -10 -11 -23 -20 -28 -20 -17 0 -275 -128 -282 -140 -3 -5 -17 -10 -31
-10 -14 0 -27 -7 -30 -15 -4 -8 -11 -15 -18 -15 -6 0 -31 -11 -56 -24 -25 -13
-65 -29 -90 -36 -25 -6 -64 -23 -87 -36 -23 -13 -48 -24 -56 -24 -8 0 -22 -9
-32 -20 -10 -11 -25 -20 -34 -20 -9 0 -25 -7 -35 -15 -11 -8 -29 -15 -41 -15
-11 0 -56 -18 -100 -40 -44 -22 -97 -43 -117 -46 -21 -4 -43 -13 -49 -20 -6
-8 -19 -14 -29 -14 -10 0 -23 -7 -30 -15 -7 -8 -23 -15 -35 -15 -13 0 -52 -15
-87 -33 -35 -18 -69 -32 -75 -30 -7 3 -25 -3 -42 -11 -16 -9 -40 -16 -53 -16
-13 -1 -41 -12 -63 -25 -51 -31 -53 -32 -96 -39 -21 -4 -42 -13 -49 -21 -7 -8
-24 -15 -39 -15 -14 -1 -37 -7 -51 -15 -14 -8 -36 -14 -48 -15 -13 0 -36 -6
-50 -14 -30 -15 -80 -31 -132 -41 -19 -4 -44 -14 -55 -21 -11 -8 -29 -14 -41
-14 -12 0 -27 -7 -34 -15 -7 -8 -29 -15 -50 -15 -21 0 -43 -7 -50 -15 -7 -8
-24 -15 -39 -15 -15 0 -36 -7 -47 -15 -22 -14 -82 -32 -141 -42 -18 -3 -38
-11 -44 -19 -7 -8 -30 -14 -58 -14 -26 0 -52 -5 -59 -12 -6 -6 -37 -15 -68
-19 -30 -4 -64 -15 -73 -23 -10 -9 -31 -16 -48 -16 -17 0 -36 -7 -43 -15 -7
-9 -29 -15 -54 -15 -22 0 -54 -7 -70 -15 -15 -8 -38 -15 -50 -15 -11 -1 -32
-7 -46 -15 -14 -8 -46 -14 -71 -15 -26 0 -63 -7 -82 -15 -20 -8 -49 -15 -66
-15 -16 0 -42 -7 -57 -15 -16 -8 -54 -15 -85 -15 -38 0 -61 -5 -69 -15 -8 -9
-30 -15 -60 -15 -34 0 -52 -5 -65 -20 -14 -16 -31 -20 -80 -20 -34 0 -66 -5
-73 -12 -11 -11 -82 -21 -254 -34 -40 -3 -72 -11 -79 -20 -8 -10 -34 -14 -89
-14 -57 0 -81 -4 -90 -15 -9 -10 -32 -15 -75 -15 -47 0 -68 -5 -88 -20 -22
-17 -40 -20 -135 -20 -85 0 -112 -3 -122 -15 -10 -11 -36 -15 -112 -15 -65 0
-111 -5 -135 -15 -23 -10 -68 -15 -127 -15 -66 0 -98 -4 -112 -15 -15 -11 -58
-14 -204 -15 -146 -1 -189 -4 -204 -15 -16 -12 -61 -15 -232 -15 -176 0 -214
-3 -224 -15 -11 -13 -94 -15 -635 -15 -541 0 -624 2 -635 15 -10 13 -52 15
-259 15 -202 0 -251 3 -267 15 -15 11 -58 14 -204 15 -146 1 -189 4 -204 15
-14 11 -47 15 -113 15 -61 0 -106 5 -130 15 -23 10 -69 15 -133 15 -75 0 -100
4 -110 15 -10 12 -37 15 -122 15 -95 0 -113 3 -135 20 -21 16 -41 20 -103 20
-57 0 -81 4 -90 15 -9 10 -32 15 -75 15 -42 0 -66 5 -74 14 -8 10 -41 17 -94
20 -186 13 -226 18 -238 32 -7 9 -32 14 -71 14 -45 0 -66 5 -85 20 -16 12 -41
20 -67 20 -22 0 -50 7 -60 15 -12 9 -43 15 -75 15 -31 1 -67 7 -81 15 -14 8
-43 14 -66 15 -22 0 -49 7 -60 15 -10 8 -35 15 -54 15 -19 0 -46 7 -60 15 -14
8 -41 14 -61 15 -20 0 -50 7 -65 15 -16 8 -48 15 -70 15 -25 0 -47 6 -54 15
-7 8 -23 15 -36 15 -13 0 -41 9 -61 20 -21 11 -56 20 -79 20 -25 0 -47 6 -54
15 -7 8 -23 15 -37 15 -13 0 -34 5 -46 12 -12 6 -42 15 -67 19 -86 15 -125 26
-152 43 -15 10 -32 15 -38 11 -6 -3 -25 3 -44 14 -18 12 -47 21 -63 21 -17 0
-36 7 -43 15 -7 8 -22 15 -34 15 -11 1 -39 9 -61 20 -22 11 -46 19 -54 20 -17
0 -74 18 -118 37 -17 7 -42 13 -55 13 -13 0 -33 7 -44 15 -10 8 -30 15 -43 15
-14 0 -32 7 -42 16 -10 9 -36 18 -58 21 -23 3 -44 9 -47 14 -7 13 -94 49 -116
49 -10 0 -30 7 -43 16 -14 9 -31 14 -38 11 -7 -3 -21 1 -32 9 -10 8 -26 14
-35 14 -9 0 -25 9 -35 20 -10 11 -30 20 -44 20 -25 0 -88 26 -114 48 -7 6 -30
13 -52 17 -22 4 -58 18 -81 31 -22 13 -48 24 -56 24 -9 0 -21 7 -28 15 -7 8
-25 15 -39 15 -15 0 -36 7 -47 15 -10 8 -26 15 -35 15 -9 0 -24 9 -34 20 -10
11 -26 20 -36 20 -10 0 -34 11 -54 24 -20 14 -50 27 -68 31 -40 8 -167 64
-185 82 -7 7 -22 13 -32 13 -10 0 -21 4 -24 9 -7 10 -269 141 -283 141 -6 0
-18 9 -28 20 -10 11 -28 20 -41 20 -13 0 -26 5 -29 10 -3 6 -50 30 -103 55
-53 25 -104 50 -112 55 -8 6 -26 15 -40 20 -14 6 -32 15 -40 20 -8 6 -29 17
-46 25 -17 7 -36 20 -43 28 -6 8 -51 34 -99 57 -48 23 -100 54 -117 70 -16 15
-42 30 -57 34 -16 3 -28 11 -28 16 0 6 -6 10 -12 10 -7 0 -40 14 -73 30 -33
16 -65 30 -71 30 -5 0 -23 14 -39 30 -16 17 -34 30 -42 30 -7 0 -27 13 -45 28
-18 16 -58 41 -88 56 -30 16 -64 37 -76 47 -11 10 -27 19 -35 19 -8 0 -31 16
-51 35 -20 19 -41 35 -47 35 -5 0 -22 11 -38 24 -15 13 -53 35 -83 49 -30 14
-73 44 -94 66 -22 23 -55 46 -73 52 -18 6 -33 15 -33 20 0 5 -19 18 -42 30
-24 12 -53 32 -65 45 -12 13 -30 24 -39 24 -9 0 -34 17 -54 37 -35 35 -94 77
-159 112 -14 8 -47 33 -73 57 -26 24 -53 44 -61 44 -7 0 -31 18 -52 40 -21 22
-45 40 -53 40 -7 0 -39 25 -71 55 -32 30 -64 55 -71 55 -7 0 -41 27 -76 60
-34 33 -71 60 -81 60 -10 0 -32 16 -48 36 -17 20 -43 42 -60 49 -16 7 -69 51
-117 99 -48 47 -92 86 -98 86 -6 0 -55 42 -109 94 -54 52 -108 97 -120 101
-12 4 -96 80 -186 170 -90 90 -174 166 -186 170 -29 10 -634 615 -644 644 -4
13 -58 75 -121 138 -63 63 -123 131 -133 151 -11 20 -63 80 -115 132 -53 52
-96 101 -96 108 0 8 -36 51 -80 95 -44 45 -80 89 -80 98 0 9 -27 42 -60 72
-33 31 -60 64 -60 73 0 10 -27 45 -60 80 -33 34 -60 68 -60 76 0 8 -23 36 -50
63 -28 28 -62 70 -76 94 -15 23 -35 52 -45 62 -10 10 -19 25 -19 32 0 7 -20
33 -45 57 -25 24 -45 51 -45 59 0 7 -20 36 -45 62 -25 26 -45 54 -45 62 0 7
-16 28 -35 47 -19 19 -35 43 -35 54 0 12 -18 36 -40 55 -22 19 -40 40 -40 48
0 8 -9 26 -20 40 -11 14 -20 34 -20 44 0 10 -9 24 -19 31 -10 8 -29 31 -42 53
-13 22 -33 53 -46 68 -13 16 -23 34 -23 41 0 7 -11 23 -25 36 -14 13 -25 31
-25 40 0 9 -16 31 -35 50 -19 19 -35 39 -35 46 0 7 -11 26 -25 42 -14 17 -25
35 -25 42 0 6 -9 23 -20 37 -11 14 -20 31 -20 38 0 7 -12 26 -27 42 -16 17
-39 52 -52 79 -13 27 -30 56 -37 64 -19 23 -64 109 -64 123 0 7 -9 20 -20 30
-11 9 -20 26 -20 37 0 11 -7 23 -16 27 -9 3 -45 65 -80 138 -35 72 -77 144
-94 160 -16 16 -30 37 -30 46 0 28 -40 49 -90 49 -68 0 -77 -9 -60 -62 7 -24
19 -50 25 -58 7 -8 29 -49 50 -90 21 -41 48 -88 61 -103 13 -16 24 -34 24 -42
0 -7 7 -18 15 -25 8 -7 15 -20 15 -29 0 -10 14 -33 31 -52 17 -19 51 -74 76
-124 25 -49 51 -97 58 -105 7 -8 26 -40 43 -71 16 -31 41 -72 55 -90 14 -19
34 -54 45 -79 11 -25 29 -54 39 -65 11 -12 26 -32 34 -47 8 -14 35 -56 60 -94
25 -38 56 -85 68 -106 12 -20 27 -38 35 -41 7 -3 17 -18 20 -33 4 -16 19 -40
33 -53 14 -14 37 -53 53 -86 15 -33 39 -71 54 -85 29 -27 116 -152 116 -167 0
-5 18 -27 40 -48 22 -21 40 -45 40 -51 0 -7 25 -41 55 -76 30 -34 55 -67 55
-71 0 -5 11 -22 25 -39 14 -16 25 -35 25 -42 0 -7 24 -37 54 -67 29 -30 60
-67 69 -84 8 -16 36 -50 62 -75 25 -25 54 -61 64 -80 11 -19 31 -46 46 -60 15
-14 43 -47 61 -75 18 -27 54 -72 79 -100 26 -27 55 -66 65 -85 11 -19 69 -84
129 -143 61 -60 111 -116 111 -124 0 -8 55 -71 123 -139 67 -69 127 -137 134
-152 6 -15 44 -59 85 -99 40 -39 172 -171 293 -293 209 -211 275 -272 302
-281 6 -2 89 -79 183 -171 94 -93 177 -168 184 -168 8 0 54 -39 103 -86 48
-47 102 -93 118 -101 17 -9 64 -49 105 -90 41 -42 91 -83 111 -93 19 -10 42
-26 49 -35 8 -9 34 -31 59 -48 25 -17 62 -47 81 -67 20 -20 54 -47 75 -60 22
-13 54 -38 72 -56 17 -17 42 -35 55 -39 12 -4 34 -19 48 -33 14 -14 48 -40 75
-58 28 -18 65 -46 83 -63 18 -17 37 -31 41 -31 5 0 28 -16 52 -35 24 -19 49
-35 55 -35 6 0 19 -10 30 -21 10 -12 49 -41 87 -65 37 -24 67 -48 67 -54 0 -5
8 -10 18 -10 11 0 27 -9 38 -21 10 -11 33 -27 50 -34 18 -7 50 -31 72 -53 22
-22 50 -43 62 -47 13 -4 44 -20 69 -36 25 -16 59 -37 74 -47 16 -9 45 -29 64
-44 19 -15 58 -39 87 -53 28 -14 78 -45 111 -70 33 -25 67 -48 75 -51 36 -14
97 -48 115 -65 11 -10 61 -38 111 -63 50 -24 104 -56 119 -70 15 -14 36 -26
45 -26 10 0 23 -6 29 -14 6 -8 26 -20 44 -27 18 -7 55 -27 82 -45 28 -18 71
-43 98 -56 63 -31 408 -206 427 -217 8 -5 58 -29 110 -54 162 -78 243 -119
300 -149 30 -17 80 -38 110 -48 74 -24 165 -67 180 -85 7 -8 20 -15 29 -15 9
0 25 -6 36 -13 11 -7 39 -19 63 -26 23 -6 75 -27 114 -46 40 -19 82 -35 94
-35 12 0 27 -7 34 -15 7 -8 20 -15 29 -15 9 0 25 -6 36 -13 11 -7 54 -23 95
-37 41 -13 97 -34 124 -47 28 -13 57 -23 66 -23 8 0 32 -9 52 -20 20 -10 66
-29 102 -40 36 -12 68 -26 72 -31 3 -5 17 -9 32 -9 15 0 41 -9 57 -20 17 -11
40 -20 53 -20 12 0 30 -4 40 -9 9 -5 44 -17 77 -26 33 -10 75 -24 93 -31 18
-8 43 -14 55 -14 12 0 31 -7 41 -15 11 -8 29 -15 40 -15 12 0 35 -7 51 -16 17
-9 44 -20 60 -25 17 -4 55 -16 85 -25 30 -9 80 -22 110 -29 30 -7 82 -22 115
-33 33 -11 81 -23 107 -27 25 -3 52 -13 58 -20 7 -9 30 -15 52 -15 22 0 49 -6
61 -12 49 -27 302 -90 422 -105 28 -3 59 -11 70 -18 11 -7 44 -15 74 -18 29
-4 58 -11 65 -16 6 -5 41 -12 78 -16 37 -4 73 -13 79 -21 6 -8 29 -14 51 -14
22 0 49 -5 61 -12 12 -6 56 -15 97 -19 90 -10 193 -27 236 -40 18 -5 63 -12
100 -15 38 -3 78 -9 89 -14 11 -5 52 -10 92 -12 48 -2 78 -9 90 -20 14 -12 46
-17 135 -20 92 -3 121 -8 136 -21 15 -13 39 -17 115 -17 52 0 108 -5 124 -12
34 -14 185 -26 438 -36 120 -5 198 -12 212 -20 16 -8 88 -12 255 -12 206 0
236 -2 258 -18 23 -16 71 -17 599 -20 560 -3 575 -2 613 18 36 18 57 20 269
20 165 0 236 4 252 12 14 8 92 16 212 20 264 10 405 22 438 36 16 7 72 12 124
12 76 0 100 4 115 17 15 13 44 18 136 21 84 3 122 8 134 19 9 8 52 19 95 24
152 16 222 28 242 38 11 6 42 11 68 11 27 0 75 7 106 15 32 8 75 15 95 15 20
1 48 7 62 15 14 8 50 14 81 15 35 0 61 5 68 14 6 7 41 16 78 20 37 4 72 11 79
17 7 5 36 12 65 16 30 3 63 12 74 19 11 8 41 14 67 14 48 0 117 13 173 32 17
6 48 13 70 18 54 9 144 38 177 56 14 8 44 14 66 14 22 0 45 6 51 14 6 8 33 17
59 20 26 4 81 18 122 31 41 12 91 26 110 30 19 3 44 10 55 14 48 19 122 41
139 41 11 0 28 7 37 16 10 9 35 20 56 24 45 10 98 27 136 46 16 8 36 14 45 14
22 0 129 34 138 43 4 4 19 7 33 7 14 0 40 9 56 20 17 11 39 20 50 20 12 0 38
9 60 20 22 11 45 20 53 20 7 0 37 11 65 24 29 13 81 33 117 44 36 11 96 34
133 51 38 17 76 31 85 31 10 0 26 7 36 15 11 8 27 15 37 15 9 0 22 7 29 15 7
8 21 15 32 15 11 0 57 17 102 39 46 21 99 41 118 45 20 4 41 13 48 21 7 8 20
15 30 15 9 0 28 8 41 18 34 26 145 77 201 92 26 7 53 19 59 26 6 8 19 14 29
14 9 0 28 8 41 18 13 10 53 32 89 49 124 59 215 103 230 112 8 5 54 29 102 53
48 23 98 48 110 55 13 7 48 24 78 39 86 40 114 54 130 64 8 5 38 20 66 34 28
14 75 41 105 61 29 19 59 35 65 35 6 0 22 8 35 19 13 10 34 22 47 25 13 4 49
25 80 45 31 21 91 55 131 75 41 21 92 51 112 67 20 16 42 29 47 29 6 0 23 10
39 23 37 29 60 43 101 62 18 8 45 24 60 35 46 36 94 67 168 108 39 22 76 47
83 55 6 8 23 18 36 21 13 3 41 22 62 41 21 19 42 35 47 35 4 0 29 17 55 38 25
20 53 42 62 47 9 6 49 33 89 60 40 28 88 58 105 67 18 9 43 30 57 46 14 16 36
33 49 37 13 4 35 19 49 32 14 14 41 33 60 44 19 10 59 41 88 69 29 27 57 50
64 50 6 0 32 19 58 43 26 23 61 51 78 62 69 46 118 83 178 138 35 31 69 57 77
57 7 0 52 38 101 85 48 47 100 92 115 100 15 7 57 41 93 75 36 33 83 72 104
86 22 15 107 95 191 180 83 85 159 154 168 154 18 0 775 756 775 775 0 6 51
63 113 126 62 63 123 132 136 154 14 22 59 74 102 116 42 42 88 94 102 115 14
22 44 59 67 84 23 25 54 63 68 85 13 22 48 65 76 97 55 61 119 141 151 190 11
17 39 51 61 77 23 25 48 60 57 76 8 17 29 43 46 59 17 17 31 35 31 42 0 6 18
34 40 62 22 27 40 54 40 58 0 5 18 29 40 52 22 24 40 48 40 54 0 5 16 29 35
52 19 24 35 48 35 53 0 5 15 25 33 44 18 19 42 50 54 69 12 20 31 47 43 59 11
13 20 30 20 37 0 7 6 19 13 26 7 7 19 27 26 45 7 17 19 34 27 37 8 3 14 10 14
17 0 6 17 36 38 67 21 32 42 64 47 73 6 9 42 62 80 119 78 114 100 150 141
230 15 30 35 66 45 80 9 14 37 58 60 98 24 41 54 90 66 110 13 21 30 51 38 67
9 17 26 48 40 70 26 45 79 141 108 198 10 20 23 37 28 37 5 0 9 7 9 16 0 13
35 99 60 145 4 9 29 55 54 103 26 48 58 104 71 124 14 20 25 44 25 54 0 10 24
64 53 120 70 138 107 223 107 248 0 13 -10 24 -26 30 -35 14 -98 12 -112 -2z"/>
<path d="M20502 9355 c-67 -7 -130 -16 -140 -20 -9 -4 -42 -13 -72 -20 -91
-21 -203 -53 -245 -71 -79 -33 -180 -108 -268 -198 -165 -169 -273 -333 -297
-451 -53 -257 -61 -387 -36 -558 34 -221 107 -370 264 -537 133 -142 304 -249
592 -368 52 -22 174 -77 270 -122 96 -45 204 -93 240 -107 248 -95 493 -272
560 -404 26 -49 50 -161 50 -229 0 -120 -62 -295 -135 -378 -84 -96 -235 -190
-358 -221 -153 -40 -456 -36 -622 8 -192 50 -440 244 -524 410 -32 61 -50 156
-60 302 -9 146 -23 176 -91 203 -79 31 -161 12 -204 -47 -20 -27 -21 -43 -23
-280 0 -139 -5 -356 -10 -483 -14 -397 5 -452 153 -442 73 5 96 21 128 88 19
40 21 61 19 188 -3 163 1 169 64 101 80 -87 200 -199 253 -237 116 -83 271
-144 465 -183 102 -20 128 -21 355 -15 267 6 409 19 479 43 185 62 452 235
561 364 121 144 206 303 250 471 18 67 23 112 23 229 1 150 2 146 -50 314 -83
266 -251 471 -510 620 -54 31 -120 70 -148 87 -27 17 -108 58 -180 90 -71 32
-136 65 -145 72 -45 39 -197 112 -280 134 -31 8 -212 85 -339 143 -104 48
-219 182 -276 324 -26 64 -29 81 -29 195 0 144 15 209 76 332 73 145 225 272
381 319 231 69 452 64 650 -15 103 -41 168 -88 255 -186 125 -139 273 -398
302 -530 32 -140 89 -210 171 -210 52 0 82 18 106 63 13 26 17 70 19 240 3
320 14 500 36 637 24 154 21 215 -16 270 -31 47 -58 60 -123 60 -54 0 -107
-29 -129 -71 -22 -44 -46 -269 -38 -366 6 -73 4 -83 -10 -83 -19 0 -24 6 -128
140 -150 192 -250 267 -436 324 -121 38 -215 54 -382 65 -185 13 -256 12 -418
-4z m-545 -578 c-74 -160 -127 -341 -127 -431 0 -59 4 -90 34 -241 25 -131 94
-263 186 -355 57 -57 165 -138 225 -168 34 -17 234 -92 340 -127 55 -18 141
-51 190 -73 375 -168 477 -216 525 -251 30 -22 82 -58 115 -79 128 -84 247
-254 343 -493 50 -123 52 -130 53 -231 1 -101 0 -106 -46 -222 -100 -254 -208
-408 -326 -464 -49 -24 -114 -32 -74 -10 32 18 148 138 194 201 55 75 91 149
127 262 27 82 29 102 29 235 l0 145 -43 89 c-50 105 -147 253 -205 314 -36 36
-250 187 -357 249 -93 55 -325 164 -410 193 -100 34 -383 143 -485 187 -178
77 -318 218 -387 393 -49 124 -59 154 -84 254 -28 118 -32 251 -9 339 24 93
89 216 160 305 33 41 41 46 43 30 2 -11 -3 -34 -11 -51z m1410 -3183 c-3 -3
-12 -4 -19 -1 -8 3 -5 6 6 6 11 1 17 -2 13 -5z"/>
<path d="M23260 9327 c-137 -9 -199 -29 -217 -70 -27 -59 -35 -178 -31 -482 5
-336 9 -368 59 -418 29 -28 32 -29 109 -25 69 3 83 6 103 28 53 55 58 90 57
391 0 249 1 279 17 294 15 16 52 17 465 13 400 -4 450 -6 465 -21 12 -12 18
-45 24 -129 4 -62 6 -839 5 -1727 -2 -1590 -2 -1613 -21 -1628 -12 -9 -32 -12
-50 -9 -16 3 -68 8 -115 12 -84 7 -85 6 -117 -23 -23 -21 -33 -42 -38 -76 -11
-69 0 -96 43 -115 33 -15 76 -17 372 -15 184 2 394 7 465 11 79 6 173 5 240 0
190 -17 303 16 320 93 10 46 -12 86 -64 117 -42 24 -56 27 -176 30 -190 6
-175 -18 -176 275 -1 133 -3 427 -6 652 -3 226 -4 442 -4 480 1 39 2 514 3
1057 2 793 6 990 16 1000 17 17 884 30 922 14 l25 -11 5 -306 c4 -269 7 -308
23 -332 40 -62 154 -85 231 -47 82 39 81 31 84 476 l3 391 -27 32 c-14 17 -35
36 -45 42 -36 19 -269 38 -394 33 -489 -21 -1875 -22 -2370 -1 -44 1 -136 -1
-205 -6z m1437 -977 c10 -94 18 -236 18 -330 -1 -91 -1 -264 -1 -385 0 -254 0
-235 -7 -1010 -6 -657 -16 -1053 -26 -1059 -3 -2 -14 1 -23 8 -15 11 -18 57
-28 412 -16 598 -12 1821 6 1953 11 76 13 148 8 262 -6 135 -4 170 12 244 10
47 20 82 21 78 1 -4 10 -82 20 -173z"/>
<path d="M15737 9320 l-379 -5 -28 -31 c-54 -62 -48 -163 13 -206 34 -24 33
-24 277 -15 l55 2 6 -200 c8 -257 8 -2739 0 -3035 l-6 -225 -90 3 c-166 5
-274 -59 -275 -164 0 -31 6 -46 26 -65 l26 -24 441 -7 c243 -4 501 -4 572 0
163 10 719 9 1415 -2 591 -10 694 -5 738 36 51 47 52 62 52 432 -1 383 -7 427
-60 480 -29 29 -35 31 -109 31 -65 0 -85 -4 -108 -21 -52 -39 -58 -63 -59
-249 -2 -427 -2 -433 -23 -440 -10 -3 -366 -6 -792 -7 -681 0 -783 1 -849 16
-41 9 -98 16 -126 16 -31 0 -56 5 -63 14 -13 15 -8 1359 5 1412 4 16 11 32 17
35 5 4 260 6 566 4 306 -1 566 2 579 6 39 15 66 91 59 166 -11 115 -50 155
-151 157 -103 1 -723 -13 -882 -20 l-152 -7 -15 24 c-24 37 -30 191 -32 814
-1 395 -6 585 -14 619 -13 55 -19 172 -8 182 4 4 71 8 149 10 79 1 218 8 309
15 117 8 275 9 540 4 206 -5 481 -9 611 -9 202 -1 240 -3 253 -17 14 -13 16
-54 16 -300 0 -161 4 -300 10 -322 8 -31 18 -42 52 -58 56 -25 160 -26 207 -1
64 34 69 66 70 466 0 378 -3 406 -52 453 l-29 28 -1132 1 c-623 0 -1159 3
-1192 5 -33 3 -230 3 -438 -1z m351 -767 c2 -169 -1 -423 -6 -563 -10 -228 -9
-262 5 -315 19 -70 20 -126 11 -895 -4 -376 -10 -566 -22 -670 -8 -80 -16
-204 -16 -276 0 -105 -3 -134 -15 -144 -16 -13 -35 -4 -62 30 -18 22 -16 234
3 426 16 163 15 213 -6 439 -10 105 -10 175 0 365 7 129 14 336 16 460 3 331
22 1131 29 1237 7 116 33 239 48 224 6 -6 12 -124 15 -318z"/>
<path d="M12348 9315 c-4 -4 -245 -9 -535 -11 -290 -2 -571 -8 -623 -13 -83
-9 -98 -13 -117 -36 -43 -49 -21 -154 39 -186 14 -7 72 -12 154 -13 147 -1
166 -8 178 -69 4 -18 7 -795 6 -1727 0 -1602 -1 -1696 -18 -1708 -10 -8 -30
-11 -47 -8 -16 3 -69 8 -116 12 -73 6 -89 4 -114 -12 -44 -28 -68 -108 -49
-159 16 -40 131 -61 354 -64 200 -2 787 -21 1004 -31 109 -6 349 -10 532 -10
356 0 382 2 669 61 299 60 359 88 508 229 150 142 243 271 299 415 72 182 83
240 83 440 0 200 -8 238 -77 360 -133 234 -263 367 -458 467 -87 44 -88 64 -1
95 105 38 207 108 316 217 115 116 145 157 184 253 49 119 64 211 65 388 1
125 -3 176 -18 235 -121 484 -430 773 -916 856 -91 15 -185 18 -700 22 -327 2
-598 0 -602 -3z m777 -220 c248 -37 335 -75 453 -199 127 -134 183 -218 232
-346 50 -130 63 -174 81 -265 23 -121 24 -250 3 -341 -44 -191 -230 -403 -416
-474 -116 -45 -213 -52 -746 -57 -276 -3 -513 -2 -526 1 -47 12 -49 36 -51
681 -2 330 -6 688 -10 795 -7 186 -7 196 12 212 17 16 52 18 324 21 378 4 444
1 644 -28z m851 -180 c116 -87 190 -195 229 -330 9 -33 33 -112 53 -175 35
-112 36 -119 37 -275 0 -151 -1 -163 -26 -218 -26 -60 -98 -167 -111 -167 -16
0 -7 38 22 94 17 32 40 97 50 143 43 182 18 336 -95 593 -49 111 -87 169 -173
261 -62 66 -78 93 -73 122 2 14 14 7 87 -48z m-2104 -469 c-2 -229 0 -295 14
-365 15 -75 17 -168 17 -716 1 -346 -5 -776 -12 -955 -6 -179 -14 -441 -16
-583 -3 -178 -8 -263 -16 -273 -16 -19 -64 -18 -85 3 -16 16 -16 67 -10 758 5
464 11 762 18 800 7 36 12 223 13 460 4 717 16 1036 41 1172 l7 36 16 -29 c14
-25 16 -67 13 -308z m1578 -1283 c30 -8 69 -21 85 -28 17 -7 56 -25 88 -39 75
-33 172 -132 220 -224 48 -92 67 -194 67 -361 0 -221 -31 -306 -209 -575 -41
-63 -127 -152 -179 -185 -78 -50 -342 -150 -448 -170 -171 -33 -313 -43 -499
-37 -287 10 -400 19 -418 35 -26 21 -31 76 -17 185 9 70 13 295 15 741 1 352
6 648 10 657 4 9 14 19 23 22 10 3 285 3 612 0 490 -4 605 -8 650 -21z m645
-193 c29 -18 54 -49 97 -120 37 -61 97 -242 112 -335 14 -90 14 -111 1 -197
-17 -115 -47 -194 -111 -289 -78 -118 -204 -227 -204 -176 0 6 34 67 74 134
92 152 120 220 141 351 26 154 18 232 -35 366 -24 60 -64 136 -88 168 -51 70
-66 105 -49 112 21 8 29 6 62 -14z"/>
<path d="M9802 7965 c-12 -14 -26 -43 -32 -63 -6 -20 -17 -53 -25 -72 -7 -19
-23 -71 -35 -115 -45 -165 -80 -248 -119 -286 l-38 -37 -119 -7 c-65 -4 -186
-5 -269 -1 -121 6 -154 4 -169 -7 -12 -9 -17 -20 -13 -30 6 -17 164 -144 257
-207 107 -73 205 -156 214 -182 10 -28 -14 -118 -64 -248 -12 -30 -28 -73 -35
-95 -8 -22 -28 -78 -44 -125 -34 -94 -38 -122 -17 -139 22 -18 69 7 166 89
174 148 317 243 365 244 30 0 57 -18 267 -181 198 -154 242 -179 267 -149 17
20 12 47 -32 171 -66 188 -117 360 -117 395 0 29 9 43 56 87 31 29 93 78 137
110 162 118 282 219 285 240 6 39 -20 42 -286 33 -139 -5 -263 -5 -275 -1 -12
5 -29 17 -38 27 -39 44 -153 299 -198 441 -18 55 -40 108 -50 117 -18 16 -20
15 -39 -9z"/>
<path d="M26876 7958 c-8 -13 -30 -75 -50 -138 -115 -365 -125 -388 -179 -417
-28 -15 -68 -18 -297 -18 -146 -1 -271 -4 -278 -9 -6 -4 -12 -13 -12 -21 0
-22 121 -118 330 -264 30 -21 75 -57 100 -79 41 -36 45 -44 44 -83 -1 -24 -20
-98 -44 -164 -143 -406 -140 -394 -115 -415 12 -10 21 -10 41 -1 23 10 131 94
204 158 14 12 43 34 65 49 133 92 169 114 202 123 34 10 41 7 97 -31 34 -22
77 -55 96 -73 19 -18 62 -52 95 -76 33 -24 62 -46 65 -49 8 -8 119 -83 144
-97 25 -14 62 -7 70 13 3 7 -10 55 -28 106 -44 121 -112 339 -127 405 -10 43
-10 58 1 77 13 26 167 157 248 212 98 67 217 170 220 190 6 41 -10 43 -282 34
-282 -9 -298 -7 -331 44 -30 45 -136 289 -175 400 -21 61 -41 119 -45 129 -10
24 -42 21 -59 -5z"/>
</g>
</svg>
